<svg width="332" height="114" viewBox="0 0 332 114" fill="none" xmlns="http://www.w3.org/2000/svg">
<g filter="url(#filter0_d_135_17)">
<path d="M24.385 88.737C22.375 88.737 20.8787 88.2457 19.896 87.263C18.958 86.2357 18.489 84.9403 18.489 83.377V82.037C18.489 80.4737 18.958 79.2007 19.896 78.218C20.8787 77.1907 22.375 76.677 24.385 76.677C26.395 76.677 27.869 77.1907 28.807 78.218C29.7897 79.2007 30.281 80.4737 30.281 82.037V83.377C30.281 84.9403 29.7897 86.2357 28.807 87.263C27.869 88.2457 26.395 88.737 24.385 88.737ZM70.0188 88L66.6688 76.878H51.0578L47.7078 88H37.3898L52.7998 41.234H65.3958L80.6048 88H70.0188ZM58.9638 50.48H58.6288L53.4698 68.235H64.1898L58.9638 50.48ZM107.309 82.104H106.974C106.661 82.9973 106.237 83.846 105.701 84.65C105.21 85.454 104.562 86.1687 103.758 86.794C102.954 87.4193 101.994 87.9107 100.877 88.268C99.805 88.6253 98.5543 88.804 97.125 88.804C93.507 88.804 90.76 87.6203 88.884 85.253C87.0527 82.841 86.137 79.4017 86.137 74.935V52.825H96.053V74.064C96.053 76.208 96.4327 77.8607 97.192 79.022C97.9513 80.1833 99.2467 80.764 101.078 80.764C101.837 80.764 102.597 80.6523 103.356 80.429C104.115 80.2057 104.785 79.893 105.366 79.491C105.947 79.0443 106.416 78.5083 106.773 77.883C107.13 77.2577 107.309 76.5207 107.309 75.672V52.825H117.225V88H107.309V82.104ZM138.779 88C135.34 88 132.727 87.129 130.94 85.387C129.198 83.645 128.327 81.099 128.327 77.749V60.53H123.369V52.825H125.848C127.188 52.825 128.104 52.5123 128.595 51.887C129.086 51.217 129.332 50.279 129.332 49.073V43.311H138.243V52.825H145.211V60.53H138.243V80.295H144.675V88H138.779ZM166.109 88.804C163.518 88.804 161.196 88.3797 159.141 87.531C157.131 86.6823 155.411 85.454 153.982 83.846C152.597 82.238 151.525 80.295 150.766 78.017C150.007 75.739 149.627 73.193 149.627 70.379C149.627 67.565 150.007 65.019 150.766 62.741C151.525 60.463 152.597 58.5423 153.982 56.979C155.411 55.371 157.131 54.1427 159.141 53.294C161.196 52.4453 163.518 52.021 166.109 52.021C168.7 52.021 171 52.4453 173.01 53.294C175.065 54.1427 176.784 55.371 178.169 56.979C179.598 58.5423 180.693 60.463 181.452 62.741C182.211 65.019 182.591 67.565 182.591 70.379C182.591 73.193 182.211 75.739 181.452 78.017C180.693 80.295 179.598 82.238 178.169 83.846C176.784 85.454 175.065 86.6823 173.01 87.531C171 88.3797 168.7 88.804 166.109 88.804ZM166.109 80.965C168.074 80.965 169.593 80.362 170.665 79.156C171.737 77.95 172.273 76.2303 172.273 73.997V66.828C172.273 64.5947 171.737 62.875 170.665 61.669C169.593 60.463 168.074 59.86 166.109 59.86C164.144 59.86 162.625 60.463 161.553 61.669C160.481 62.875 159.945 64.5947 159.945 66.828V73.997C159.945 76.2303 160.481 77.95 161.553 79.156C162.625 80.362 164.144 80.965 166.109 80.965Z" fill="#424242"/>
<path d="M191.006 60.53H186.048V52.825H191.006V48.671C191.006 45.2763 191.899 42.7303 193.686 41.033C195.472 39.291 198.085 38.42 201.525 38.42H207.957V46.125H200.922V52.825H223.367V88H213.451V60.53H200.922V88H191.006V60.53ZM218.409 49.073C216.399 49.073 214.925 48.6263 213.987 47.733C213.093 46.795 212.647 45.6113 212.647 44.182V42.708C212.647 41.2787 213.093 40.1173 213.987 39.224C214.925 38.286 216.399 37.817 218.409 37.817C220.419 37.817 221.87 38.286 222.764 39.224C223.702 40.1173 224.171 41.2787 224.171 42.708V44.182C224.171 45.6113 223.702 46.795 222.764 47.733C221.87 48.6263 220.419 49.073 218.409 49.073ZM242.493 88C239.098 88 236.597 87.1737 234.989 85.521C233.425 83.8683 232.644 81.4787 232.644 78.352V38.42H242.56V80.295H246.982V88H242.493ZM267.6 88.804C264.92 88.804 262.53 88.3797 260.431 87.531C258.331 86.6377 256.545 85.4093 255.071 83.846C253.641 82.238 252.547 80.295 251.788 78.017C251.073 75.739 250.716 73.193 250.716 70.379C250.716 67.6097 251.073 65.1083 251.788 62.875C252.502 60.597 253.552 58.654 254.937 57.046C256.366 55.438 258.108 54.2097 260.163 53.361C262.217 52.4677 264.562 52.021 267.198 52.021C270.101 52.021 272.58 52.5123 274.635 53.495C276.734 54.4777 278.431 55.7953 279.727 57.448C281.067 59.1007 282.027 61.0213 282.608 63.21C283.233 65.354 283.546 67.6097 283.546 69.977V72.925H260.967V73.461C260.967 75.7837 261.592 77.6373 262.843 79.022C264.093 80.362 266.059 81.032 268.739 81.032C270.793 81.032 272.468 80.63 273.764 79.826C275.059 78.9773 276.265 77.9723 277.382 76.811L282.34 82.975C280.776 84.8063 278.722 86.2357 276.176 87.263C273.674 88.2903 270.816 88.804 267.6 88.804ZM267.399 59.324C265.389 59.324 263.803 59.994 262.642 61.334C261.525 62.6293 260.967 64.3713 260.967 66.56V67.096H273.295V66.493C273.295 64.349 272.803 62.6293 271.821 61.334C270.883 59.994 269.409 59.324 267.399 59.324Z" fill="#424242"/>
</g>
<defs>
<filter id="filter0_d_135_17" x="14.489" y="37.8174" width="273.057" height="58.9863" filterUnits="userSpaceOnUse" color-interpolation-filters="sRGB">
<feFlood flood-opacity="0" result="BackgroundImageFix"/>
<feColorMatrix in="SourceAlpha" type="matrix" values="0 0 0 0 0 0 0 0 0 0 0 0 0 0 0 0 0 0 127 0" result="hardAlpha"/>
<feOffset dy="4"/>
<feGaussianBlur stdDeviation="2"/>
<feComposite in2="hardAlpha" operator="out"/>
<feColorMatrix type="matrix" values="0 0 0 0 0.499294 0 0 0 0 0.499294 0 0 0 0 0.499294 0 0 0 0.25 0"/>
<feBlend mode="normal" in2="BackgroundImageFix" result="effect1_dropShadow_135_17"/>
<feBlend mode="normal" in="SourceGraphic" in2="effect1_dropShadow_135_17" result="shape"/>
</filter>
</defs>
</svg>
