<svg width="613" height="377" viewBox="0 0 613 377" fill="none" xmlns="http://www.w3.org/2000/svg">
<path d="M143.342 231.254C143.306 223.118 144.823 216.055 147.893 210.066C151.035 204.004 155.658 199.304 161.764 195.965C167.941 192.626 175.53 190.937 184.53 190.897C188.202 190.881 191.479 191.155 194.362 191.718C197.316 192.281 199.767 193.027 201.715 193.954L201.775 207.562L200.695 207.567C198.818 206.495 196.547 205.677 193.88 205.113C191.213 204.476 188.368 204.165 185.344 204.178C179.584 204.203 174.765 205.268 170.886 207.373C167.007 209.478 164.068 212.551 162.07 216.592C160.071 220.561 159.084 225.425 159.11 231.185C159.135 236.945 160.164 241.836 162.198 245.859C164.231 249.811 167.196 252.822 171.093 254.893C174.99 256.964 179.819 257.987 185.579 257.961C188.603 257.948 191.446 257.648 194.107 257.06C196.768 256.401 199.032 255.527 200.9 254.438L201.98 254.434L202.039 268.042C200.099 268.986 197.655 269.753 194.705 270.342C191.828 270.93 188.553 271.233 184.881 271.249C175.881 271.288 168.278 269.701 162.072 266.488C155.938 263.275 151.274 258.687 148.08 252.725C144.957 246.691 143.378 239.534 143.342 231.254ZM230.933 271.047C221.933 271.087 215.123 269.64 210.502 266.709C205.953 263.776 203.664 258.998 203.635 252.374C203.617 248.126 204.646 244.63 206.722 241.885C208.87 239.139 211.849 237.11 215.659 235.798C219.541 234.413 224.002 233.709 229.042 233.687C232.138 233.674 234.839 233.914 237.145 234.408C239.451 234.83 241.541 235.289 243.415 235.784L243.458 245.504C242.016 245.007 240.178 244.583 237.944 244.232C235.71 243.81 233.549 243.604 231.461 243.613C226.781 243.633 223.292 244.296 220.994 245.603C218.768 246.908 217.661 249.109 217.675 252.205C217.688 255.157 218.813 257.276 221.051 258.562C223.288 259.849 226.495 260.483 230.671 260.464C233.191 260.453 235.602 260.227 237.904 259.785C240.278 259.27 242.363 258.505 244.158 257.489L242.017 261.711C241.725 260.848 241.469 259.985 241.249 259.122C241.029 258.259 240.846 257.36 240.697 256.425C240.621 255.489 240.545 254.445 240.468 253.294C240.462 252.07 240.456 250.594 240.448 248.866L240.384 234.07C240.368 230.398 239.78 227.628 238.619 225.761C237.459 223.894 235.762 222.678 233.527 222.112C231.293 221.473 228.519 221.161 225.207 221.176C222.183 221.189 219.269 221.526 216.464 222.186C213.658 222.774 211.393 223.468 209.669 224.268L208.589 224.273L208.536 212.285C211.124 211.337 214.037 210.641 217.275 210.194C220.513 209.676 223.752 209.41 226.992 209.396C231.024 209.378 234.733 209.722 238.12 210.427C241.58 211.132 244.573 212.379 247.101 214.168C249.629 215.957 251.584 218.505 252.966 221.811C254.42 225.044 255.159 229.253 255.182 234.437L255.241 248.045C255.248 249.557 255.256 251.465 255.266 253.769C255.348 256.001 255.465 258.196 255.619 260.355C255.772 262.515 255.996 264.242 256.289 265.536L255.969 266.402C253.525 267.349 250.865 268.188 247.988 268.921C245.183 269.581 242.305 270.098 239.355 270.471C236.404 270.843 233.597 271.036 230.933 271.047ZM262.961 269.611L262.796 231.92C262.79 230.48 262.746 228.644 262.664 226.412C262.582 224.109 262.464 221.877 262.311 219.718C262.229 217.486 262.006 215.723 261.64 214.429L261.96 213.563C263.973 212.834 266.31 212.176 268.972 211.589C271.705 211.001 274.547 210.556 277.498 210.255C280.52 209.882 283.543 209.689 286.567 209.676C287.863 209.67 289.268 209.7 290.78 209.765C292.292 209.831 293.805 209.968 295.318 210.177L295.371 222.489L294.399 222.494C293.318 222.21 292.093 222.036 290.725 221.97C289.357 221.832 288.024 221.765 286.728 221.771C284.424 221.781 282.157 221.971 279.927 222.341C277.696 222.711 275.79 223.151 274.208 223.662L276.461 220.196C277.406 222.136 277.888 225.482 277.909 230.234L278.081 269.545L262.961 269.611ZM319.071 270.662C310.071 270.701 303.26 269.255 298.639 266.323C294.091 263.391 291.802 258.613 291.773 251.989C291.754 247.741 292.783 244.245 294.859 241.5C297.007 238.754 299.986 236.725 303.796 235.413C307.678 234.028 312.139 233.324 317.179 233.302C320.275 233.289 322.976 233.529 325.282 234.023C327.588 234.445 329.678 234.903 331.553 235.399L331.595 245.119C330.153 244.621 328.315 244.198 326.081 243.847C323.848 243.425 321.687 243.218 319.599 243.228C314.919 243.248 311.43 243.911 309.131 245.217C306.905 246.523 305.799 248.724 305.812 251.82C305.825 254.772 306.95 256.891 309.188 258.177C311.426 259.463 314.632 260.097 318.808 260.079C321.328 260.068 323.739 259.842 326.041 259.4C328.415 258.885 330.5 258.12 332.295 257.104L330.154 261.326C329.862 260.463 329.606 259.6 329.387 258.737C329.167 257.874 328.983 256.975 328.835 256.039C328.759 255.104 328.682 254.06 328.605 252.908C328.6 251.684 328.593 250.208 328.586 248.48L328.521 233.685C328.505 230.013 327.917 227.243 326.757 225.376C325.597 223.509 323.899 222.293 321.665 221.726C319.43 221.088 316.657 220.776 313.345 220.791C310.321 220.804 307.406 221.141 304.601 221.801C301.795 222.389 299.53 223.083 297.806 223.883L296.726 223.887L296.674 211.899C299.261 210.952 302.174 210.255 305.412 209.809C308.65 209.291 311.889 209.025 315.129 209.011C319.161 208.993 322.871 209.337 326.258 210.042C329.717 210.747 332.71 211.994 335.238 213.783C337.766 215.572 339.721 218.119 341.104 221.425C342.558 224.659 343.296 228.868 343.319 234.052L343.378 247.66C343.385 249.172 343.393 251.08 343.403 253.384C343.485 255.615 343.603 257.811 343.756 259.97C343.909 262.13 344.133 263.857 344.427 265.151L344.106 266.017C341.663 266.963 339.002 267.803 336.125 268.536C333.32 269.196 330.442 269.712 327.492 270.085C324.542 270.458 321.735 270.651 319.071 270.662ZM372.272 270.43C368.456 270.446 364.602 270.067 360.711 269.292C356.82 268.589 353.432 267.704 350.547 266.637L350.219 265.774C350.502 264.477 350.674 262.748 350.737 260.588C350.871 258.427 350.934 256.231 350.924 253.999C350.986 251.695 351.014 249.822 351.007 248.382L350.831 207.991C350.826 206.911 350.784 205.471 350.704 203.671C350.696 201.799 350.651 199.855 350.57 197.84C350.489 195.752 350.373 193.845 350.221 192.117C350.07 190.318 349.884 188.951 349.663 188.016L349.984 187.15L365.86 187.081L366.14 251.232C366.15 253.464 366.05 255.409 365.841 257.066C365.704 258.65 365.566 260.019 365.427 261.171L362.819 257.511C364.044 257.722 365.629 258.003 367.575 258.354C369.593 258.705 371.645 258.876 373.733 258.867C379.709 258.841 384.058 257.094 386.779 253.626C389.499 250.158 390.846 245.364 390.82 239.244C390.794 233.412 389.334 228.847 386.44 225.547C383.617 222.176 379.398 220.502 373.782 220.527C372.342 220.533 371.01 220.611 369.787 220.76C368.635 220.909 367.448 221.13 366.226 221.424C365.075 221.717 363.853 222.118 362.559 222.628L362.512 211.828C365.099 210.736 367.58 209.97 369.954 209.527C372.399 209.013 374.738 208.75 376.97 208.741C383.162 208.713 388.424 209.915 392.754 212.344C397.157 214.772 400.484 218.286 402.736 222.884C405.06 227.41 406.236 232.769 406.263 238.961C406.293 246.017 404.879 251.855 402.019 256.476C399.231 261.096 395.286 264.569 390.185 266.895C385.083 269.222 379.112 270.4 372.272 270.43ZM434.102 270.159C425.102 270.199 418.292 268.753 413.671 265.821C409.122 262.889 406.833 258.111 406.804 251.487C406.786 247.239 407.814 243.742 409.89 240.997C412.038 238.252 415.018 236.223 418.828 234.91C422.71 233.525 427.171 232.821 432.211 232.799C435.307 232.786 438.008 233.026 440.314 233.52C442.62 233.942 444.71 234.401 446.584 234.897L446.627 244.616C445.184 244.119 443.347 243.695 441.113 243.345C438.879 242.922 436.718 242.716 434.63 242.725C429.95 242.745 426.461 243.409 424.163 244.715C421.936 246.02 420.83 248.221 420.844 251.317C420.857 254.269 421.982 256.388 424.219 257.675C426.457 258.961 429.664 259.595 433.84 259.577C436.36 259.565 438.771 259.339 441.073 258.897C443.447 258.383 445.531 257.617 447.327 256.602L445.185 260.823C444.894 259.96 444.638 259.097 444.418 258.234C444.198 257.371 444.014 256.472 443.866 255.537C443.79 254.601 443.714 253.557 443.637 252.406C443.631 251.182 443.625 249.706 443.617 247.978L443.553 233.182C443.537 229.51 442.948 226.74 441.788 224.873C440.628 223.006 438.931 221.79 436.696 221.224C434.461 220.585 431.688 220.274 428.376 220.288C425.352 220.301 422.438 220.638 419.632 221.298C416.827 221.886 414.562 222.58 412.837 223.38L411.757 223.385L411.705 211.397C414.293 210.449 417.206 209.753 420.444 209.307C423.682 208.788 426.921 208.522 430.161 208.508C434.193 208.49 437.902 208.834 441.289 209.539C444.748 210.244 447.742 211.491 450.27 213.28C452.798 215.069 454.753 217.617 456.135 220.923C457.589 224.156 458.328 228.365 458.35 233.549L458.41 247.157C458.416 248.669 458.425 250.577 458.435 252.881C458.517 255.113 458.634 257.308 458.788 259.467C458.941 261.627 459.165 263.354 459.458 264.649L459.138 265.514C456.694 266.461 454.034 267.3 451.157 268.033C448.352 268.693 445.474 269.21 442.524 269.583C439.573 269.956 436.766 270.148 434.102 270.159ZM461.685 239.043C461.656 232.347 462.855 226.725 465.284 222.179C467.711 217.56 471.116 214.089 475.498 211.766C479.88 209.443 484.915 208.269 490.603 208.244C496.219 208.219 501.228 209.35 505.63 211.634C510.032 213.919 513.467 217.36 515.935 221.957C518.403 226.483 519.651 232.093 519.681 238.789C519.71 245.557 518.511 251.214 516.083 255.761C513.655 260.308 510.25 263.779 505.868 266.174C501.486 268.497 496.487 269.671 490.871 269.695C485.112 269.721 480.031 268.591 475.629 266.306C471.298 263.949 467.899 260.508 465.431 255.982C462.964 251.457 461.715 245.811 461.685 239.043ZM477.129 238.975C477.157 245.311 478.33 250.094 480.648 253.324C482.966 256.482 486.357 258.051 490.821 258.031C495.212 258.012 498.554 256.414 500.844 253.236C503.133 249.986 504.265 245.193 504.237 238.857C504.209 232.521 503.036 227.774 500.719 224.616C498.4 221.386 495.045 219.781 490.653 219.8C486.189 219.819 482.813 221.454 480.523 224.704C478.233 227.882 477.101 232.639 477.129 238.975ZM530.384 269.523C527.792 269.534 525.629 268.751 523.894 267.175C522.23 265.526 521.393 263.334 521.381 260.598C521.369 257.862 522.187 255.698 523.836 254.107C525.558 252.516 527.714 251.714 530.306 251.703C532.898 251.692 535.025 252.474 536.688 254.051C538.351 255.628 539.189 257.784 539.201 260.52C539.213 263.256 538.394 265.456 536.745 267.119C535.096 268.71 532.976 269.511 530.384 269.523ZM552.245 200.09C549.797 200.101 547.742 199.39 546.08 197.957C544.489 196.452 543.688 194.368 543.676 191.704C543.665 189.112 544.448 187.092 546.026 185.646C547.675 184.126 549.724 183.361 552.172 183.351C554.692 183.34 556.747 184.087 558.338 185.592C559.928 187.025 560.729 189.037 560.74 191.629C560.752 194.293 559.969 196.385 558.392 197.904C556.814 199.351 554.765 200.079 552.245 200.09ZM536.457 294.336C534.369 294.346 532.532 294.21 530.947 293.928C529.362 293.719 527.993 293.437 526.839 293.082L526.786 280.771L527.865 280.766C528.803 281.122 529.812 281.405 530.893 281.617C531.902 281.9 533.199 282.039 534.783 282.032C538.023 282.017 540.539 281.142 542.332 279.407C544.196 277.67 545.121 275.038 545.105 271.51L544.914 227.663C544.907 226.223 544.863 224.387 544.782 222.155C544.7 219.924 544.582 217.728 544.429 215.569C544.347 213.337 544.123 211.574 543.758 210.28L544.078 209.414L559.954 209.345L560.221 270.58C560.242 275.404 559.325 279.584 557.468 283.12C555.684 286.728 552.996 289.476 549.404 291.364C545.885 293.323 541.569 294.314 536.457 294.336ZM564.965 253.387L565.829 253.384C568.426 254.452 571.454 255.375 574.913 256.152C578.444 256.929 581.974 257.309 585.502 257.294C586.726 257.288 588.058 257.247 589.498 257.168C590.937 257.018 592.268 256.76 593.49 256.395C594.785 256.029 595.826 255.377 596.614 254.437C597.474 253.497 597.9 252.235 597.893 250.651C597.884 248.636 597.05 247.235 595.391 246.45C593.731 245.666 591.172 244.993 587.714 244.432L582.634 243.59C576.87 242.607 572.434 240.899 569.328 238.464C566.221 235.958 564.657 232.257 564.635 227.361C564.62 223.833 565.542 220.625 567.401 217.736C569.332 214.848 572.311 212.567 576.335 210.893C580.432 209.147 585.792 208.26 592.416 208.231C595.512 208.217 598.357 208.421 600.951 208.842C603.616 209.19 606.138 209.719 608.518 210.429L608.572 222.849L607.708 222.852C604.967 221.784 602.336 221.04 599.814 220.619C597.292 220.198 594.699 219.993 592.035 220.005C588.003 220.022 584.838 220.54 582.538 221.558C580.31 222.504 579.201 224.201 579.212 226.649C579.22 228.521 580.054 229.849 581.714 230.634C583.445 231.418 585.932 232.092 589.174 232.653L594.146 233.496C597.532 233.985 600.596 234.872 603.338 236.156C606.152 237.439 608.391 239.23 610.057 241.526C611.723 243.751 612.564 246.627 612.579 250.155C612.607 256.419 610.287 261.145 605.621 264.334C601.027 267.45 594.049 269.028 584.69 269.069C581.234 269.084 577.776 268.812 574.318 268.251C570.859 267.69 567.76 266.983 565.021 266.131L564.965 253.387Z" fill="url(#paint0_linear_128_64)"/>
<path d="M159.71 126.078C155.273 130.625 151.293 135.773 147.401 140.967C145.842 142.912 145.842 142.912 142.891 142.39C142.003 142.111 141.114 141.832 140.198 141.545C139.045 138.801 139.156 136.855 139.385 133.811C140.569 131.29 140.569 131.29 142.282 129.038C142.869 128.215 143.457 127.391 144.063 126.542C146.479 123.371 148.963 120.315 151.58 117.378C146.903 114.167 141.889 114.848 136.737 116.075C124.383 120.121 114.803 130.407 108.266 143.361C105.715 148.858 103.324 154.431 101.062 160.104C100.471 161.572 99.8528 163.025 99.228 164.473C95.462 173.967 96.2467 184.19 99.0914 193.866C99.6432 195.604 99.6432 195.604 100.206 197.377C103.196 207.052 102.307 214.562 98.7358 223.772C98.4041 224.656 98.0725 225.539 97.7308 226.449C96.7295 229.092 95.7058 231.721 94.6708 234.345C94.2352 235.453 94.2352 235.453 93.7907 236.584C92.0135 241.057 90.1359 245.454 88.1669 249.812C87.4343 251.447 87.4343 251.447 86.687 253.116C83.3658 260.031 79.4795 265.406 74.5931 270.777C72.243 273.386 70.8606 275.041 70.2811 278.812C70.6636 279.163 71.0461 279.515 71.4402 279.877C75.4661 283.742 78.0609 287.012 78.7159 293.372C78.3716 296.579 77.5279 298.425 75.972 301.045C72.8629 300.517 71.5881 298.86 69.4681 296.212C69.4243 298.427 69.3927 300.642 69.3665 302.858C69.3476 304.092 69.3287 305.325 69.3093 306.596C69.4681 309.745 69.4681 309.745 71.0941 311.679C73.3137 311.455 75.408 311.138 77.598 310.712C92.3689 307.908 105.379 310.59 119.111 317.298C123.415 319.354 127.45 320.764 132.068 319.412C134.424 316.817 135.986 314.304 136.327 310.463C136.608 297.568 134.234 285.035 127.19 274.945C125.519 272.993 123.827 271.199 121.989 269.474C119.904 267.4 119.869 266.195 119.569 262.918C119.637 257.312 121.83 252.835 123.938 247.939C124.768 245.952 125.597 243.964 126.425 241.976C126.835 241.005 127.244 240.034 127.666 239.034C128.943 235.975 130.159 232.889 131.358 229.788C134.46 221.767 137.854 213.954 141.357 206.172C142.786 202.995 144.167 199.797 145.518 196.573C151.349 182.749 156.978 172.849 169.466 166.678C174.013 164.89 178.316 164.434 183.084 164.503C183.716 164.507 184.349 164.511 185.001 164.514C190.223 164.607 195.254 165.345 200.36 166.678C199.634 159.403 199.634 159.403 199.131 156.755C197.522 146.044 198.089 135.568 202.799 126.078C203.381 125.216 203.964 124.353 204.564 123.465C206.051 121.245 206.051 121.245 206.051 119.311C190.278 111.874 173.691 114.613 159.71 126.078Z" fill="url(#paint1_linear_128_64)"/>
<path d="M324.838 23.3911C324.545 24.1315 324.252 24.872 323.95 25.6348C324.588 27.4781 325.227 29.3208 325.871 31.1608C328.436 39.2053 328.563 47.432 328.61 55.9949C328.618 56.9359 328.626 57.8769 328.635 58.8464C328.571 74.8916 324.14 88.9256 316.849 101.921C316.471 102.609 316.092 103.297 315.702 104.007C305.304 120.99 287.776 131.341 271.427 135.103C254.307 137.49 239.169 134.544 223.043 127.373C218.746 125.493 214.867 124.373 210.34 125.48C206.081 128.111 204.548 132.493 203 137.925C200.958 148.192 201.771 158.851 205.902 168.11C211.721 177.559 220.065 179.024 228.979 180.45C231.31 180.588 233.62 180.685 235.951 180.718C236.604 180.729 237.257 180.74 237.929 180.751C265.494 181.121 265.494 181.121 278.683 175.963C279.385 175.692 280.087 175.421 280.81 175.142C295.241 169.385 308.309 160.902 319.512 147.917C320.353 146.945 321.194 145.973 322.06 144.972C334.33 130.158 343.033 110.105 343.893 88.3709C343.923 86.0632 343.932 83.7549 343.92 81.4469C343.915 80.2269 343.91 79.0068 343.905 77.7497C343.525 55.9456 335.974 39.6049 324.838 23.3911Z" fill="url(#paint2_linear_128_64)"/>
<path d="M29.2029 33C11.5638 42.6275 4.90735 59.8238 0.972374 75.568C-2.55598 94.2928 3.61711 113.339 17.8758 128.616C33.8971 144.32 55.435 155.717 80.421 161C81.7212 161 83.0213 161 84.3609 161C84.713 160.303 85.0651 159.606 85.4279 158.888C91.8236 146.552 99.4627 134.633 108 123.112C106.727 123.097 105.454 123.083 104.142 123.068C81.9987 122.557 59.9736 117.763 43.4336 105.656C26.9156 91.9545 22.0562 75.4065 22.3389 57.096C22.5888 51.1854 24.2729 45.7839 26.5763 40.168C27.1007 38.7183 27.6213 37.2678 28.1358 35.816C28.488 34.8867 28.8401 33.9574 29.2029 33Z" fill="url(#paint3_linear_128_64)"/>
<path d="M85.7279 185.045C73.2207 187.169 60.746 196.295 53.2083 208.245C62.6587 212.245 72.8278 213.105 82.1901 208.396C84.8096 206.865 87.3136 205.246 89.7928 203.412C89.2704 199.109 88.4053 195.109 87.3031 190.966C87.0086 189.852 86.7141 188.738 86.4107 187.59C86.0727 186.33 86.0727 186.33 85.7279 185.045Z" fill="url(#paint4_linear_128_64)"/>
<path d="M93.4134 322.217C92.7269 322.221 92.0405 322.224 91.3332 322.227C90.269 322.239 90.269 322.239 89.1833 322.251C88.1002 322.258 88.1002 322.258 86.9952 322.265C85.2178 322.276 83.4405 322.292 81.6631 322.312C81.6631 323.269 81.6631 324.226 81.6631 325.212C88.6195 332.897 96.4367 333.272 105.494 333.142C109.316 332.891 112.925 332.17 116.622 331.012C116.622 330.374 116.622 329.736 116.622 329.079C113.98 328.131 111.337 327.185 108.695 326.239C107.947 325.97 107.199 325.702 106.428 325.425C105.704 325.167 104.981 324.908 104.236 324.642C103.572 324.404 102.908 324.166 102.224 323.921C99.1847 322.873 96.5938 322.192 93.4134 322.217Z" fill="url(#paint5_linear_128_64)"/>
<defs>
<linearGradient id="paint0_linear_128_64" x1="384.761" y1="194.078" x2="385.184" y2="290.853" gradientUnits="userSpaceOnUse">
<stop stop-color="#487664"/>
<stop offset="1" stop-color="#3E6958"/>
</linearGradient>
<linearGradient id="paint1_linear_128_64" x1="137.68" y1="115.054" x2="137.68" y2="319.945" gradientUnits="userSpaceOnUse">
<stop stop-color="#487664"/>
<stop offset="1" stop-color="#3E6958"/>
</linearGradient>
<linearGradient id="paint2_linear_128_64" x1="272.925" y1="23.3911" x2="272.925" y2="180.891" gradientUnits="userSpaceOnUse">
<stop stop-color="#487664"/>
<stop offset="1" stop-color="#3E6958"/>
</linearGradient>
<linearGradient id="paint3_linear_128_64" x1="54" y1="33" x2="54" y2="161" gradientUnits="userSpaceOnUse">
<stop stop-color="#487664"/>
<stop offset="1" stop-color="#3E6958"/>
</linearGradient>
<linearGradient id="paint4_linear_128_64" x1="71.5006" y1="185.045" x2="71.5006" y2="211.597" gradientUnits="userSpaceOnUse">
<stop stop-color="#487664"/>
<stop offset="1" stop-color="#3E6958"/>
</linearGradient>
<linearGradient id="paint5_linear_128_64" x1="99.1424" y1="322.217" x2="99.1424" y2="333.16" gradientUnits="userSpaceOnUse">
<stop stop-color="#487664"/>
<stop offset="1" stop-color="#3E6958"/>
</linearGradient>
</defs>
</svg>
