<svg width="235" height="90" viewBox="0 0 235 90" fill="none" xmlns="http://www.w3.org/2000/svg">
<g filter="url(#filter0_d_135_92)">
<path d="M27.8902 21.6C24.0502 22.02 22.1302 23.76 22.1302 26.82V33.84C22.1302 35.4 21.9502 36.69 21.5902 37.71C21.2302 38.67 20.8402 39.48 20.4202 40.14C20.0002 40.8 19.5802 41.4 19.1602 41.94C18.8002 42.42 18.6202 42.96 18.6202 43.56C18.6202 44.22 18.8002 44.79 19.1602 45.27C19.5802 45.75 20.0002 46.32 20.4202 46.98C20.8402 47.64 21.2302 48.45 21.5902 49.41C21.9502 50.37 22.1302 51.63 22.1302 53.19L22.0402 60.75C21.9202 64.47 23.8702 66.39 27.8902 66.51C29.0302 66.69 29.6002 67.32 29.6002 68.4C29.6002 69.72 28.5202 70.38 26.3602 70.38H23.3002C21.3202 70.38 19.9402 69.81 19.1602 68.67L17.1802 66.42C16.0402 65.22 15.4702 63.6 15.4702 61.56V52.29C15.4102 51.33 15.2602 50.46 15.0202 49.68C14.7802 48.84 14.4202 48.06 13.9402 47.34L12.5902 45.54C11.9302 44.88 11.6002 44.22 11.6002 43.56C11.6002 42.96 11.9002 42.3 12.5002 41.58L13.9402 39.69C14.3602 39.15 14.7202 38.49 15.0202 37.71C15.3202 36.87 15.4702 35.97 15.4702 35.01V26.73C15.4702 25.83 15.5602 24.99 15.7402 24.21C15.9802 23.37 16.4302 22.59 17.0902 21.87L19.1602 19.53C19.7002 18.93 20.2702 18.48 20.8702 18.18C21.5302 17.82 22.3702 17.64 23.3902 17.64H26.6302C28.6102 17.64 29.6002 18.27 29.6002 19.53C29.6002 20.91 29.0302 21.6 27.8902 21.6ZM78.2959 29.79C78.8959 30.45 79.3759 31.29 79.7359 32.31C80.0959 33.27 80.2759 34.44 80.2759 35.82V51.84C80.2759 53.34 80.0959 54.6 79.7359 55.62C79.3759 56.64 78.8959 57.45 78.2959 58.05L75.2359 61.29C74.6359 61.83 73.7959 62.25 72.7159 62.55C71.6359 62.85 70.4359 63 69.1159 63H57.9559C53.0959 63 50.6659 60.72 50.6659 56.16V31.41C50.6659 26.73 53.0959 24.39 57.9559 24.39H68.7559C71.6359 24.57 73.7059 25.2 74.9659 26.28L76.5859 27.99L78.2959 29.79ZM62.2759 27.9C58.7359 27.9 56.9659 29.61 56.9659 33.03V54.54C56.9659 57.96 58.7659 59.67 62.3659 59.67H64.4359C67.1359 59.73 69.1759 59.19 70.5559 58.05L71.8159 56.97C73.2559 55.41 73.9759 53.55 73.9759 51.39V36.18C73.8559 35.22 73.6159 34.29 73.2559 33.39C72.8959 32.49 72.3259 31.62 71.5459 30.78L70.6459 29.88C69.9259 29.22 69.0859 28.77 68.1259 28.53C67.1659 28.29 66.1159 28.08 64.9759 27.9H62.2759ZM120.482 27.9H114.362C110.762 27.9 108.962 29.79 108.962 33.57V36.99C108.962 40.59 110.732 42.39 114.272 42.39H120.662C124.202 42.39 125.972 40.17 125.972 35.73V32.4C125.972 29.4 124.142 27.9 120.482 27.9ZM125.972 58.14V50.22C125.972 47.28 124.142 45.81 120.482 45.81H114.362C110.762 45.81 108.962 47.28 108.962 50.22V58.23C108.962 61.35 107.912 62.91 105.812 62.91C103.712 62.91 102.662 61.5 102.662 58.68V30.87C102.662 26.55 104.852 24.39 109.232 24.39H124.802C129.782 24.39 132.272 26.55 132.272 30.87V58.59C132.272 61.47 131.222 62.91 129.122 62.91C127.022 62.91 125.972 61.32 125.972 58.14ZM175.718 52.56C176.498 54.3 177.098 55.17 177.518 55.17C177.818 55.17 177.968 54.63 177.968 53.55L178.058 29.52C178.058 25.92 179.108 24.12 181.208 24.12C183.368 24.12 184.448 25.59 184.448 28.53L184.358 56.97C184.358 61.29 182.378 63.45 178.418 63.45C176.558 63.45 174.998 62.04 173.738 59.22L163.118 35.01C162.338 33.87 161.828 33.3 161.588 33.3C161.228 33.3 161.048 34.02 161.048 35.46V58.5C161.048 61.74 159.998 63.36 157.898 63.36C155.738 63.36 154.658 61.92 154.658 59.04L154.748 30.51C154.748 26.13 156.698 23.94 160.598 23.94C162.098 23.94 163.658 25.41 165.278 28.35L175.718 52.56ZM207.194 21.6C205.994 21.6 205.394 20.91 205.394 19.53C205.394 18.27 206.414 17.64 208.454 17.64H211.694C213.374 17.64 214.784 18.27 215.924 19.53L217.994 21.87C218.594 22.59 219.014 23.37 219.254 24.21C219.494 24.99 219.644 25.83 219.704 26.73V35.01C219.704 35.97 219.794 36.87 219.974 37.71C220.214 38.49 220.574 39.15 221.054 39.69L222.494 41.58C223.034 42.42 223.304 43.11 223.304 43.65C223.304 44.25 223.034 44.88 222.494 45.54L221.144 47.34C220.184 48.78 219.704 50.46 219.704 52.38V61.47C219.704 63.51 219.104 65.16 217.904 66.42L215.924 68.67C214.784 69.81 213.374 70.38 211.694 70.38H208.544C206.444 70.38 205.394 69.72 205.394 68.4C205.394 67.32 205.994 66.69 207.194 66.51C211.094 66.39 213.044 64.59 213.044 61.11V53.37C213.044 51.75 213.194 50.46 213.494 49.5C213.854 48.48 214.214 47.67 214.574 47.07C214.994 46.41 215.354 45.84 215.654 45.36C216.014 44.88 216.194 44.31 216.194 43.65C216.194 42.99 216.014 42.39 215.654 41.85C215.354 41.31 214.994 40.71 214.574 40.05C214.214 39.39 213.854 38.58 213.494 37.62C213.194 36.66 213.044 35.4 213.044 33.84V26.82C213.044 23.76 211.094 22.02 207.194 21.6Z" fill="#979797"/>
</g>
<defs>
<filter id="filter0_d_135_92" x="7.60022" y="17.6396" width="219.704" height="60.7402" filterUnits="userSpaceOnUse" color-interpolation-filters="sRGB">
<feFlood flood-opacity="0" result="BackgroundImageFix"/>
<feColorMatrix in="SourceAlpha" type="matrix" values="0 0 0 0 0 0 0 0 0 0 0 0 0 0 0 0 0 0 127 0" result="hardAlpha"/>
<feOffset dy="4"/>
<feGaussianBlur stdDeviation="2"/>
<feComposite in2="hardAlpha" operator="out"/>
<feColorMatrix type="matrix" values="0 0 0 0 0.499294 0 0 0 0 0.499294 0 0 0 0 0.499294 0 0 0 0.25 0"/>
<feBlend mode="normal" in2="BackgroundImageFix" result="effect1_dropShadow_135_92"/>
<feBlend mode="normal" in="SourceGraphic" in2="effect1_dropShadow_135_92" result="shape"/>
</filter>
</defs>
</svg>
