<svg width="500" height="500" viewBox="0 0 500 500" fill="none" xmlns="http://www.w3.org/2000/svg">
<path d="M244.5 448.667C244.5 448.667 395.5 378 395.5 272V148.333L244.5 95.3335L93.5 148.333V272C93.5 378 244.5 448.667 244.5 448.667Z" fill="#FF5047"/>
<path d="M186.87 181.219L189.808 304.629M189.808 304.629C172.926 305.031 159.57 319.17 159.975 336.209C160.381 353.249 174.395 366.736 191.278 366.334C208.16 365.932 221.516 351.793 221.111 334.754M189.808 304.629C206.69 304.227 220.705 317.714 221.111 334.754M310.61 240.013C327.492 239.611 340.849 225.472 340.443 208.433C340.038 191.393 326.023 177.906 309.141 178.308C292.259 178.71 278.902 192.849 279.308 209.888C279.714 226.927 293.728 240.415 310.61 240.013ZM310.61 240.013C311.195 264.561 302.094 288.333 285.309 306.1C268.525 323.868 245.432 334.175 221.111 334.754" stroke="#F3F3F3" stroke-width="18" stroke-linecap="round" stroke-linejoin="round"/>
</svg>
