<svg width="194" height="86" viewBox="0 0 194 86" fill="none" xmlns="http://www.w3.org/2000/svg">
<g filter="url(#filter0_d_135_91)">
<path d="M5.694 10.565V8.409H6.541L12.701 8.563C16.2943 8.61433 20.1443 8.61433 24.251 8.563C29.025 8.46033 31.3863 8.409 31.335 8.409H32.259V10.565V12.721H28.409C24.8157 12.7723 22.865 12.952 22.557 13.26C22.4543 13.3113 22.403 20.4723 22.403 34.743V56.072L22.557 56.226C22.6083 56.2773 22.7623 56.38 23.019 56.534C23.5837 56.7393 26.3043 56.7907 31.181 56.688C31.6943 56.6367 32.0537 56.611 32.259 56.611C37.2383 56.149 40.6263 54.1213 42.423 50.528C43.501 48.526 44.271 45.4973 44.733 41.442C44.8357 40.364 44.9127 39.748 44.964 39.594V39.209H46.889H48.814V39.594C48.7627 39.6967 48.4033 43.1873 47.736 50.066C47.0687 56.996 46.7093 60.5123 46.658 60.615V61H26.176H5.694V58.844V56.688H7.85C11.4433 56.688 13.3427 56.5083 13.548 56.149V13.26C13.3427 12.9007 11.4433 12.721 7.85 12.721H5.694V10.565ZM60.903 9.641C62.6997 9.23033 64.2653 9.66667 65.6 10.95C66.5753 12.028 67.063 13.2087 67.063 14.492C67.063 15.3133 66.8833 16.0833 66.524 16.802C65.6 18.5473 64.0857 19.4713 61.981 19.574C60.0303 19.574 58.5673 18.7013 57.592 16.956C57.1813 16.186 56.976 15.3647 56.976 14.492C56.976 13.722 57.1557 12.9777 57.515 12.259C58.1823 10.8217 59.3117 9.949 60.903 9.641ZM60.364 27.428C64.676 27.12 66.7293 26.966 66.524 26.966H66.755V41.519C66.755 51.221 66.8063 56.1233 66.909 56.226C67.063 56.38 67.1913 56.457 67.294 56.457C67.602 56.611 68.7313 56.688 70.682 56.688H72.145V58.844V61H71.529L67.14 60.846C64.5733 60.7947 61.9297 60.7947 59.209 60.846C56.0777 60.9487 54.4863 61 54.435 61H53.742V58.844V56.688H55.359C58.0283 56.688 59.4657 56.5083 59.671 56.149C59.7223 56.0977 59.748 52.5557 59.748 45.523C59.748 38.131 59.6453 34.1783 59.44 33.665C59.286 33.203 58.978 32.8693 58.516 32.664C57.7973 32.3047 56.591 32.125 54.897 32.125H54.05V29.969V27.813H54.204L60.364 27.428ZM81.4097 27.428C85.7217 27.12 87.775 26.966 87.5697 26.966H87.8777V29.584V32.202L88.7247 31.278C90.8293 29.122 93.319 27.7873 96.1937 27.274C98.6063 26.7607 100.968 26.8377 103.278 27.505C104.51 27.7617 105.613 28.3007 106.589 29.122C108.283 30.508 109.284 32.6897 109.592 35.667C109.643 36.0263 109.669 39.5683 109.669 46.293C109.669 52.8123 109.694 56.0977 109.746 56.149C109.951 56.5083 111.388 56.688 114.058 56.688H115.675V58.844V61H115.059L110.208 60.846C107.384 60.7947 104.612 60.7947 101.892 60.846L97.1947 61H96.5017V58.844V56.688H98.1187C100.839 56.688 102.277 56.4827 102.431 56.072V45.677C102.379 38.593 102.225 34.666 101.969 33.896C101.507 32.202 100.429 31.1497 98.7347 30.739C97.6567 30.5337 96.5017 30.5593 95.2697 30.816C93.165 31.278 91.471 32.51 90.1877 34.512C89.4177 35.59 88.8787 36.8733 88.5707 38.362C88.468 38.824 88.391 41.8527 88.3397 47.448V56.072C88.4937 56.4827 89.9567 56.688 92.7287 56.688H94.3457V58.844V61H93.7297L88.8787 60.846C86.1067 60.7947 83.3347 60.7947 80.5627 60.846L75.7117 61H75.0957V58.844V56.688H76.7127C79.382 56.688 80.8193 56.5083 81.0247 56.149V34.743C80.8193 33.511 80.1777 32.741 79.0997 32.433C78.535 32.279 77.6623 32.1763 76.4817 32.125H75.0957V29.969V27.813H75.2497L81.4097 27.428ZM132.897 26.581C133.872 26.427 135.309 26.4783 137.209 26.735C139.981 27.197 142.291 28.352 144.139 30.2C146.089 32.1507 147.373 34.82 147.989 38.208C148.194 39.6453 148.297 40.9543 148.297 42.135C148.297 42.4943 148.194 42.7767 147.989 42.982L147.758 43.213H137.286H126.814V44.522C126.814 48.4233 127.353 51.298 128.431 53.146C129.611 55.1993 131.408 56.611 133.821 57.381C135.053 57.7403 136.259 57.92 137.44 57.92C138.261 57.92 138.851 57.8687 139.211 57.766C141.675 57.0473 143.369 55.148 144.293 52.068C144.395 51.6573 144.549 51.3493 144.755 51.144L144.986 50.913H146.372H147.758L147.989 51.144C148.297 51.4007 148.322 51.9397 148.066 52.761C147.604 54.0957 146.988 55.2763 146.218 56.303C145.448 57.4837 144.421 58.5103 143.138 59.383C141.136 60.8717 138.774 61.693 136.054 61.847C131.434 62.001 127.404 60.4097 123.965 57.073C122.579 55.7383 121.372 54.0957 120.346 52.145C119.062 49.4757 118.446 46.601 118.498 43.521C118.549 40.8517 119.191 38.2337 120.423 35.667C122.733 30.9957 126.3 28.0697 131.126 26.889C131.69 26.735 132.281 26.6323 132.897 26.581ZM135.977 30.354C135.309 30.1487 134.437 30.0973 133.359 30.2C130.741 30.7647 128.893 32.3817 127.815 35.051C127.25 36.6423 126.968 38.0797 126.968 39.363V39.671H134.052H141.136V39.055C140.982 37.207 140.545 35.4873 139.827 33.896C138.903 32.0993 137.619 30.9187 135.977 30.354Z" fill="#FF5C2C"/>
<path d="M165.725 26.581C165.93 26.4783 166.649 26.4783 167.881 26.581C169.883 26.581 171.654 26.8377 173.194 27.351C175.606 28.1723 177.557 29.3787 179.046 30.97C180.38 32.356 181.253 33.896 181.664 35.59C181.766 36.0007 181.843 39.4657 181.895 45.985C181.895 52.299 181.946 55.6613 182.049 56.072C182.408 57.0473 182.947 57.381 183.666 57.073C183.768 57.0217 183.897 56.919 184.051 56.765C184.41 56.4057 184.59 55.61 184.59 54.378C184.641 54.07 184.667 53.531 184.667 52.761V49.835H186.592H188.517V52.53C188.517 54.4807 188.491 55.5587 188.44 55.764C188.132 57.766 186.951 59.3317 184.898 60.461C182.896 61.4363 181.125 61.7187 179.585 61.308C178.096 60.8973 176.967 59.9477 176.197 58.459C175.991 58.151 175.837 57.8173 175.735 57.458L175.658 57.15L174.965 57.843C174.092 58.7157 173.014 59.46 171.731 60.076C169.267 61.3593 166.597 61.9497 163.723 61.847C160.232 61.693 157.46 60.5123 155.407 58.305C154.637 57.535 154.046 56.7137 153.636 55.841C152.66 53.7877 152.506 51.7343 153.174 49.681C154.098 46.909 156.202 44.7273 159.488 43.136C161.849 41.9553 164.57 41.134 167.65 40.672C169.6 40.3127 171.654 40.0817 173.81 39.979H174.657V38.131C174.605 36.8477 174.528 36.0007 174.426 35.59C174.272 34.9227 173.938 34.1783 173.425 33.357C172.193 31.5603 170.601 30.508 168.651 30.2C167.47 29.9947 165.776 30.046 163.569 30.354C163.158 30.4567 162.927 30.508 162.876 30.508C162.773 30.508 162.85 30.6363 163.107 30.893C163.928 31.971 164.21 33.28 163.954 34.82C163.543 36.5653 162.439 37.669 160.643 38.131C159 38.5417 157.563 38.1567 156.331 36.976C155.407 36.1033 154.97 34.9227 155.022 33.434C155.073 32.664 155.278 31.894 155.638 31.124C156.202 30.046 157.229 29.0707 158.718 28.198C160.514 27.3253 162.85 26.7863 165.725 26.581ZM174.657 47.371V43.521H174.195C173.219 43.521 172.141 43.6493 170.961 43.906C169.215 44.214 167.47 44.7273 165.725 45.446C162.901 46.7293 161.233 48.603 160.72 51.067C160.463 52.6583 160.771 54.1213 161.644 55.456C163.184 57.8687 165.494 58.7157 168.574 57.997C168.728 57.9457 168.882 57.8943 169.036 57.843C171.294 57.227 172.911 55.918 173.887 53.916C173.989 53.6593 174.092 53.4283 174.195 53.223C174.503 52.0423 174.657 50.0917 174.657 47.371Z" fill="#707070"/>
<path d="M4 69.855H150.556V77.555H4V69.855Z" fill="#FF5C2C"/>
<path d="M150.556 69.855H189.056V77.555H150.556V69.855Z" fill="#707070"/>
</g>
<defs>
<filter id="filter0_d_135_91" x="0" y="8.40918" width="193.056" height="77.1455" filterUnits="userSpaceOnUse" color-interpolation-filters="sRGB">
<feFlood flood-opacity="0" result="BackgroundImageFix"/>
<feColorMatrix in="SourceAlpha" type="matrix" values="0 0 0 0 0 0 0 0 0 0 0 0 0 0 0 0 0 0 127 0" result="hardAlpha"/>
<feOffset dy="4"/>
<feGaussianBlur stdDeviation="2"/>
<feComposite in2="hardAlpha" operator="out"/>
<feColorMatrix type="matrix" values="0 0 0 0 0.499294 0 0 0 0 0.499294 0 0 0 0 0.499294 0 0 0 0.25 0"/>
<feBlend mode="normal" in2="BackgroundImageFix" result="effect1_dropShadow_135_91"/>
<feBlend mode="normal" in="SourceGraphic" in2="effect1_dropShadow_135_91" result="shape"/>
</filter>
</defs>
</svg>
