<svg width="337" height="328" viewBox="0 0 337 328" fill="none" xmlns="http://www.w3.org/2000/svg">
<path fill-rule="evenodd" clip-rule="evenodd" d="M159.653 98.4437C158.017 99.6195 155.172 102.139 153.59 103.656C148.742 108.307 145.315 114.821 145.315 119.386C145.315 120.13 145.203 120.63 145.038 120.63C144.885 120.63 144.236 120.338 143.596 119.981C140.426 118.213 136.108 116.877 131.298 116.176C127.819 115.669 120.191 115.565 116.502 115.974C112.053 116.468 109.144 117.306 111.467 117.803C115.531 119.293 114.574 125.968 115.869 128.691C118.35 133.91 122.973 139.164 127.331 141.722C128.424 142.364 128.556 142.724 127.698 142.724C126.541 142.724 120.929 146.047 118.58 148.124C115.586 150.772 113.537 153.398 111.582 157.097C110.015 160.063 109.554 169.091 109.725 169.451C109.902 169.826 110.481 166.591 114.526 167.445C122.394 169.107 129.066 169.262 135.321 167.929C137.908 167.377 141.928 166.066 143.58 165.235C144.268 164.89 144.867 164.607 144.912 164.607C144.957 164.607 145.076 165.53 145.176 166.658C145.277 167.787 145.572 169.609 145.832 170.709C147.271 176.794 150.949 183.244 159.072 190.353L160.233 193.333L163.202 189.611C166.565 186.669 169.872 183.42 171.326 181.629C175.203 176.855 177.256 172.129 177.661 167.045C177.76 165.812 177.91 164.831 177.996 164.865C178.082 164.899 179.325 165.414 180.758 166.009C183.413 167.111 186.555 167.986 189.266 168.377C191.781 168.74 197.442 168.871 200.606 168.638C205.042 168.312 210.52 173.865 210.52 173.234C210.52 172.865 213.304 161.519 211.848 158.505C208.163 150.873 203.224 146.092 195.998 143.164C195.106 142.803 194.376 142.437 194.376 142.352C194.376 142.267 194.979 141.866 195.714 141.461C200.647 138.746 205.029 133.359 207.729 126.691C208.92 123.752 207.258 118.796 212.483 118.299C211.903 116.313 196.667 115.566 193.063 115.985C188.226 116.547 183.765 117.768 180.099 119.531L177.892 120.592L177.721 119.928C177.626 119.562 177.413 118.458 177.249 117.474C176.611 113.667 174.065 108.886 170.792 105.344C168.921 103.321 161.394 99.4431 163.136 96.9445C163.717 95.9452 160.328 97.9587 159.653 98.4437ZM164.226 106.572C167.574 112.6 168.556 116.087 168.348 121.207C168.233 124.026 167.845 125.891 167.372 125.891C167.273 125.891 167.132 125.062 167.059 124.049C166.987 123.037 166.652 121.404 166.316 120.42L165.706 118.631L165.402 121.181C165.236 122.584 165.019 124.051 164.92 124.443C164.618 125.641 163.92 127.364 163.736 127.364C163.64 127.364 163.481 126.298 163.382 124.996C163.18 122.33 161.581 115.234 161.332 115.896C160.748 117.445 159.767 122.671 159.613 125.049L159.431 127.89L158.997 127.116C158.181 125.661 157.478 123.138 157.29 120.989C157.106 118.882 157.096 118.858 156.783 119.683C156.391 120.717 155.71 124.219 155.678 125.365L155.655 126.206L155.172 125.358C153.53 122.47 153.883 117.448 156.095 112.224C157.138 109.762 160.105 103.942 160.468 103.648C160.557 103.576 160.63 104.205 160.63 105.046C160.63 107.212 161.176 112.706 161.412 112.916C161.624 113.104 161.817 111.208 162.083 106.357C162.174 104.698 162.333 103.42 162.437 103.517C162.541 103.613 163.346 104.988 164.226 106.572ZM156.788 105.828C156.238 106.71 154.03 112.045 152.979 115.029C151.629 118.862 151.542 123.297 152.747 126.807C153.099 127.832 153.346 128.77 153.297 128.891C153.157 129.23 151.282 126.823 150.48 125.274C148.389 121.235 148.921 116.048 151.928 111.149C153.505 108.581 156.825 104.64 157.173 104.923C157.238 104.976 157.065 105.383 156.788 105.828ZM169.666 109.195C170.405 110.201 171.366 111.771 171.8 112.684C173.24 115.712 173.48 116.723 173.48 119.789C173.48 122.514 173.446 122.696 172.637 124.273C171.86 125.791 170.305 127.911 170.095 127.741C170.045 127.701 170.234 126.96 170.514 126.095C171.051 124.437 171.235 120.661 170.879 118.621C170.425 116.02 168.028 109.502 166.241 106.007L165.811 105.165L167.066 106.266C167.756 106.871 168.926 108.189 169.666 109.195ZM129.082 119.055C135.009 119.779 139.708 121.356 144.008 124.062C145.548 125.032 147.725 127.202 149.093 129.131L149.824 130.163L148.074 128.765C145.948 127.068 143.714 125.754 141.292 124.777C139.531 124.067 135.711 122.873 135.711 123.033C135.711 123.076 136.791 123.733 138.112 124.493C140.454 125.842 145.299 129.551 145.017 129.78C144.939 129.843 144.551 129.688 144.154 129.434C142.972 128.681 139.292 126.943 138.878 126.943C138.667 126.943 138.949 127.229 139.504 127.579C141.648 128.931 145.315 132.772 145.315 133.665C145.315 134.082 144.633 133.886 143.885 133.253C142.678 132.232 138.985 130.341 134.802 128.604C132.661 127.715 130.665 126.928 130.366 126.856C130.068 126.784 132.563 128.958 135.91 131.687C139.257 134.415 141.939 136.693 141.871 136.748C141.803 136.803 140.976 136.613 140.033 136.325C136.966 135.39 133.545 133.936 131.622 132.752C130.587 132.114 129.741 131.648 129.741 131.717C129.741 132.211 134.516 136.319 136.36 137.41C138.756 138.828 133.417 136.811 129.577 134.847C128.311 134.199 126.985 133.505 126.631 133.305L125.987 132.939L126.599 133.64C127.606 134.795 131.58 138.087 132.766 138.748C133.374 139.088 135.658 140.119 137.841 141.041C140.025 141.962 141.577 142.718 141.292 142.719C140.613 142.724 136.228 141.773 134.441 141.235C128.24 139.367 122.461 134.106 119.171 127.333C118.589 126.135 118.039 124.917 117.949 124.628C117.789 124.111 117.796 124.112 118.377 124.71C120.271 126.657 121.099 127.375 122.916 128.651C124.026 129.43 124.979 130.031 125.034 129.986C125.089 129.941 123.973 128.457 122.554 126.688C119.7 123.129 118.205 121.073 118.374 120.936C118.435 120.887 119.225 121.283 120.129 121.817C122.772 123.375 126.903 125.525 127.041 125.414C127.11 125.357 125.76 124.242 124.041 122.936C122.321 121.63 120.956 120.527 121.008 120.485C121.211 120.32 129.072 122.366 131.651 123.255C132.201 123.445 132.701 123.561 132.761 123.513C132.957 123.354 130.019 121.673 128.011 120.795C126.929 120.322 125.211 119.668 124.193 119.343L122.343 118.751L124.419 118.745C125.561 118.742 127.659 118.881 129.082 119.055ZM198.529 119.346C195.907 120.139 194.092 120.902 191.856 122.15C189.468 123.484 188.914 123.975 190.364 123.473C192.976 122.568 196.316 121.595 199.048 120.945L202.033 120.234L198.788 122.729C197.004 124.101 195.607 125.275 195.685 125.338C195.763 125.402 197.737 124.414 200.072 123.144C202.408 121.874 204.366 120.873 204.424 120.92C204.552 121.024 201.67 124.979 199.388 127.831C198.465 128.983 197.778 129.981 197.861 130.048C197.944 130.116 199.599 128.87 201.538 127.281C203.582 125.606 204.985 124.596 204.876 124.878C204.333 126.287 201.765 130.717 200.527 132.381C196.641 137.607 192.527 140.18 185.173 141.982C180.516 143.123 180.394 142.848 184.771 141.074C186.841 140.235 189.465 139.009 190.601 138.348C192.427 137.287 195.789 134.47 196.482 133.421C196.621 133.21 195.664 133.611 194.321 134.328C192.039 135.545 187.586 137.478 186.101 137.896C185.536 138.055 185.595 137.973 186.45 137.407C189.029 135.704 193.078 132.212 193.078 131.692C193.078 131.611 192.406 131.967 191.585 132.484C189.824 133.593 186.458 135.084 183.733 135.963C179.955 137.181 179.964 137.153 184.546 133.532C186.883 131.686 189.788 129.432 191.001 128.524C192.215 127.616 193.246 126.795 193.294 126.698C193.402 126.479 190.026 127.645 187.116 128.832C184.705 129.816 181.214 131.66 179.191 133.02C178.478 133.499 177.856 133.797 177.808 133.681C177.509 132.954 180.583 129.199 182.592 127.837C183.212 127.417 183.676 127.037 183.623 126.994C183.456 126.859 181.039 127.924 179.216 128.935C177.193 130.058 177.286 129.706 179.5 127.868C181.446 126.252 183.485 124.874 185.355 123.911C186.176 123.488 186.848 123.102 186.848 123.054C186.848 122.939 184.968 123.412 183.473 123.904C180.249 124.964 177.761 126.304 174.931 128.506C172.516 130.385 172.42 130.258 174.424 127.838C177.663 123.926 182.128 121.465 188.805 119.91C191.887 119.192 195.254 118.78 198.14 118.767L200.476 118.757L198.529 119.346ZM167.548 130.41C169.109 133.073 168.79 134.861 166.236 137.762C165.606 138.478 164.885 139.2 164.634 139.368C164.212 139.65 164.193 139.626 164.376 139.041C164.861 137.488 165.277 135.559 165.419 134.202L165.574 132.729L164.449 135.254C163.829 136.643 163.14 138.058 162.917 138.398L162.511 139.017L162.351 138.398C161.983 136.968 161.669 133.781 161.827 133.072C161.921 132.652 162.158 132.052 162.353 131.739C162.686 131.205 165.964 128.874 166.419 128.848C166.533 128.842 167.041 129.544 167.548 130.41ZM157.386 129.433C157.814 129.645 158.792 130.286 159.558 130.857L160.951 131.896L160.712 135.469L160.474 139.041L159.744 137.779C159.343 137.085 158.617 135.57 158.131 134.412L157.247 132.308L157.406 133.676C157.546 134.874 157.786 136.118 158.421 138.936L158.587 139.673L157.241 138.515C155.492 137.013 154.621 135.49 154.459 133.652C154.343 132.337 154.408 132.092 155.262 130.634C155.774 129.761 156.285 129.047 156.4 129.048C156.513 129.048 156.957 129.222 157.386 129.433ZM152.114 133.263C153.016 133.466 153.105 133.565 153.656 134.981C153.978 135.808 154.835 137.462 155.561 138.657C156.287 139.852 156.85 140.83 156.812 140.83C156.775 140.83 155.311 140.238 153.56 139.515C151.809 138.792 149.899 138.047 149.314 137.861C148.376 137.562 148.215 137.409 147.951 136.558C147.786 136.028 147.651 135.02 147.651 134.319V133.045L149.404 133.046C150.367 133.047 151.587 133.144 152.114 133.263ZM175.217 134.623C175.173 135.433 175.024 136.448 174.885 136.878C174.663 137.565 174.498 137.689 173.537 137.89C171.333 138.35 170.743 138.561 168.535 139.685C167.298 140.315 166.241 140.83 166.187 140.83C166.132 140.83 166.393 140.286 166.765 139.62C168.683 136.191 169.456 134.671 169.456 134.329C169.456 133.848 170.177 133.322 171.014 133.194C171.37 133.139 172.48 133.106 173.48 133.122L175.297 133.15L175.217 134.623ZM151.343 136.106C151.731 136.435 152.117 136.649 152.201 136.581C152.285 136.513 151.967 136.243 151.495 135.982L150.637 135.506L151.343 136.106ZM149.908 139.066C151.197 139.421 153.453 140.722 154.79 141.882L155.569 142.558L153.741 142.414C152.735 142.334 150.72 142.103 149.263 141.899C147.805 141.696 146.613 141.567 146.613 141.612C146.613 141.815 149.62 142.74 152.587 143.45C154.369 143.877 155.93 144.307 156.055 144.405C156.182 144.506 155.611 144.869 154.757 145.231C153.918 145.587 152.478 146.259 151.555 146.724C149.541 147.741 148.191 148.066 146.723 147.887C145.695 147.762 143.454 146.754 143.062 146.239C142.961 146.107 143.638 145.449 144.639 144.706L146.393 143.404L144.781 142.007C143.183 140.623 143.173 140.606 143.657 140.173C144.183 139.701 145.306 139.18 146.352 138.922C147.423 138.658 148.599 138.706 149.908 139.066ZM177.633 139.306C178.521 139.662 179.32 140.19 179.32 140.42C179.32 140.506 178.678 141.242 177.892 142.056L176.464 143.535L178.022 144.739C178.879 145.402 179.58 146.099 179.58 146.289C179.58 146.903 176.949 147.774 175.096 147.774C173.542 147.774 173.345 147.709 170.021 146.112C168.119 145.199 166.659 144.403 166.776 144.344C166.894 144.286 168.275 143.936 169.845 143.567C172.837 142.865 176.578 141.693 176.37 141.525C176.303 141.471 175.275 141.587 174.085 141.784C170.178 142.43 167.379 142.679 167.379 142.382C167.379 142.066 170.461 139.911 171.59 139.438C173.245 138.745 176.077 138.683 177.633 139.306ZM162.137 142.121C162.199 142.552 162.396 142.705 163.02 142.806C163.764 142.926 163.793 142.963 163.417 143.303C163.168 143.528 163.062 143.886 163.143 144.225C163.335 145.028 162.811 145.151 162.046 144.482L161.382 143.901L160.79 144.504C160.443 144.856 160.072 145.043 159.895 144.954C159.503 144.758 159.504 144.055 159.896 143.859C160.096 143.758 160 143.647 159.615 143.531C158.856 143.303 159.047 142.848 159.937 142.762C160.46 142.712 160.63 142.579 160.63 142.219C160.63 141.612 160.863 141.428 161.528 141.505C161.883 141.546 162.084 141.75 162.137 142.121ZM139.44 144.362C139.51 144.453 138.796 144.646 137.854 144.791C135.528 145.148 131.18 146.554 129.216 147.583C127.592 148.433 124.809 150.426 124.809 150.738C124.809 150.83 125.422 150.578 126.171 150.177C127.811 149.3 130.734 148.362 134.06 147.645C136.852 147.042 137.926 147.046 136.49 147.653C135.296 148.158 132.323 149.936 131.677 150.532C131.171 150.999 131.171 151 131.687 150.83C135.28 149.647 141.146 148.459 142.409 148.658C142.678 148.701 142.094 149.066 140.902 149.599C139.832 150.078 137.904 151.048 136.619 151.754C133.894 153.253 128.154 156.868 128.306 156.991C128.445 157.104 133.114 155.843 139.562 153.951C142.466 153.1 144.974 152.403 145.136 152.403C145.664 152.403 142.114 155.142 140.34 156.103C139.388 156.619 137.366 157.522 135.846 158.111C134.327 158.699 133.124 159.213 133.173 159.253C133.536 159.547 140.299 157.916 142.59 156.982L143.628 156.559L142.979 157.133C141.97 158.025 137.943 160.096 135.833 160.808C133.575 161.57 129.955 162.382 126.865 162.819C124.367 163.172 115.644 163.981 115.509 163.872C115.461 163.833 116.862 163.115 118.623 162.277C123.25 160.075 125.967 158.642 125.67 158.562C125.385 158.485 119.407 160.3 116.839 161.244C115.94 161.574 115.204 161.79 115.204 161.724C115.204 161.657 115.87 160.943 116.683 160.137C118.469 158.367 123.032 154.839 125.259 153.506C126.149 152.973 126.827 152.496 126.765 152.446C126.703 152.396 125.287 152.887 123.619 153.537C120.598 154.715 117.841 156.201 116.389 157.436C115.969 157.792 115.538 158.084 115.429 158.084C115.043 158.084 116.572 155.631 118.186 153.66C122.419 148.49 127.623 145.4 133.764 144.41C135.143 144.188 139.281 144.153 139.44 144.362ZM190.871 144.8C197.498 146.442 204.052 151.459 207.225 157.319L207.893 158.552L206.391 157.462C205.565 156.862 204.129 155.961 203.201 155.46C201.377 154.474 196.735 152.524 196.556 152.669C196.496 152.718 197.165 153.215 198.042 153.774C200.736 155.489 207.892 161.506 207.559 161.776C207.488 161.834 206.634 161.592 205.662 161.238C203.192 160.34 196.944 158.457 196.805 158.569C196.652 158.693 202.772 161.771 205.468 162.926C206.644 163.43 207.566 163.874 207.518 163.913C207.401 164.008 200.353 163.407 196.971 163.013C190.904 162.307 184.763 160.387 181.134 158.062C179.674 157.126 179.403 156.63 180.683 157.234C182.326 158.009 189.444 159.575 189.444 159.161C189.444 159.086 188.889 158.862 188.211 158.665C185.527 157.882 179.569 154.612 178.309 153.23C177.758 152.625 177.744 152.563 178.179 152.678C178.45 152.749 182.117 153.756 186.329 154.916C190.54 156.075 196.757 159.911 196.971 159.909C197.202 159.906 194.355 156.721 193.763 156.297C192.33 155.271 185.041 151.08 182.503 149.823C181.321 149.238 180.392 148.728 180.438 148.691C180.484 148.654 181.569 148.76 182.849 148.928C185.625 149.292 189.336 150.138 190.785 150.737C191.36 150.975 191.883 151.127 191.947 151.075C192.168 150.896 189.165 148.888 187.484 148.091C186.557 147.652 185.846 147.253 185.903 147.206C186.074 147.069 190.048 147.941 192.415 148.635C193.615 148.987 195.374 149.655 196.325 150.12C197.275 150.584 198.107 150.921 198.173 150.867C198.429 150.66 194.742 148.198 192.886 147.338C190.335 146.155 186.861 145.108 184.33 144.759C181.64 144.389 182.376 144.184 186.069 144.276C188.163 144.328 189.597 144.484 190.871 144.8ZM170.34 147.552C174.53 149.427 175.142 150.051 175.364 152.679L175.506 154.362L174.262 154.224C173.578 154.148 172.33 154.086 171.488 154.086C170.483 154.086 169.93 153.996 169.874 153.823C169.458 152.535 168.913 151.607 167.62 149.988C166.791 148.949 166.164 148.057 166.226 148.007C166.289 147.956 167.162 148.38 168.166 148.949C169.17 149.517 170.251 150.124 170.568 150.297C171.175 150.627 168.515 148.105 167.144 147.05C166.702 146.711 166.341 146.36 166.341 146.271C166.341 146.014 168.319 146.648 170.34 147.552ZM156.218 146.388C156.218 146.437 155.212 147.36 153.984 148.44C150.656 151.366 150.356 151.821 152.822 150.207C155.154 148.681 156.955 147.666 157.101 147.795C157.153 147.841 156.458 148.707 155.557 149.72C154.655 150.733 153.69 152.055 153.413 152.658C152.836 153.912 152.717 153.958 149.494 154.189L147.392 154.34V153.199C147.392 151.366 148.014 150.02 149.259 149.156C151 147.948 156.218 145.873 156.218 146.388ZM166.386 149.826C168.158 151.362 168.533 152.049 168.537 153.77C168.541 155.079 168.429 155.413 167.539 156.769C166.987 157.608 166.421 158.294 166.279 158.294C165.868 158.294 163.601 156.878 162.741 156.084C162.308 155.684 161.881 155.001 161.791 154.564C161.548 153.381 161.335 153.038 161.23 153.665C160.953 155.335 160.619 155.772 158.651 157.039C157.576 157.732 156.577 158.239 156.432 158.166C156.287 158.094 155.77 157.361 155.284 156.539C153.609 153.706 154.263 151.523 157.442 149.336C158.372 148.697 159.179 148.211 159.236 148.256C159.292 148.302 158.979 149.277 158.541 150.424C158.103 151.57 157.689 152.981 157.621 153.56L157.497 154.612L158.124 153.293C158.976 151.502 160.717 148.616 160.946 148.615C161.048 148.615 161.21 149.091 161.305 149.672C161.535 151.077 161.928 151.223 161.928 149.903C161.928 149.324 162.028 148.8 162.15 148.739C162.414 148.607 164.138 151.512 164.95 153.455C165.264 154.207 165.53 154.631 165.542 154.396C165.559 154.032 164.294 149.521 163.838 148.321C163.693 147.941 163.724 147.943 164.437 148.355C164.851 148.593 165.728 149.256 166.386 149.826ZM152.98 157.716C153.06 157.976 152.942 158.611 152.717 159.127C152.116 160.509 151.547 163.63 151.547 165.553C151.547 168.443 152.763 172.743 155.414 179.225C155.839 180.265 156.143 181.15 156.09 181.193C156.037 181.236 155.396 180.622 154.667 179.83C152.702 177.694 150.912 174.581 149.966 171.655C149.251 169.443 149.148 168.779 149.137 166.29C149.126 163.728 149.194 163.284 149.836 161.766C150.615 159.921 152.258 157.242 152.611 157.242C152.733 157.242 152.899 157.455 152.98 157.716ZM147.911 157.637C147.911 157.962 144.518 160.806 143.008 161.747C141.209 162.868 139.124 163.731 136.172 164.575C132.416 165.649 129.941 165.929 125.198 165.818C121.175 165.724 119.075 165.452 120.27 165.18C120.553 165.116 121.369 165 122.083 164.922C126.097 164.488 133.662 163.269 135.877 162.7C139.358 161.806 143.768 160.028 145.964 158.632C147.995 157.341 147.911 157.384 147.911 157.637ZM172.08 159.662C173.088 161.404 173.558 163.009 173.758 165.406C174.067 169.099 173.022 172.599 170.357 176.784C169.004 178.91 167.197 181.152 166.979 180.975C166.924 180.93 167.507 179.335 168.276 177.432C170.422 172.12 171.084 169.498 171.194 165.869C171.272 163.284 171.192 162.449 170.671 160.398C170.333 159.067 170.116 157.846 170.189 157.683C170.377 157.262 171.171 158.093 172.08 159.662ZM177.763 159.282C180.286 160.641 182.511 161.494 185.84 162.38C190.771 163.692 197.664 164.889 201.451 165.092C202.274 165.136 203.008 165.222 203.084 165.283C203.35 165.498 199.26 165.869 196.636 165.868C187.966 165.864 180.986 163.604 176.612 159.386C175.081 157.909 174.686 157.224 175.881 158.119C176.273 158.413 177.12 158.936 177.763 159.282ZM160.414 168.973C160.885 171.316 161.34 173.234 161.424 173.234C161.602 173.234 162.867 167.766 163.226 165.448C163.36 164.58 163.473 163.331 163.478 162.673C163.501 159.2 164.97 162.983 165.447 167.745C165.549 168.768 165.709 169.39 165.825 169.218C166.219 168.632 166.871 165.727 167.071 163.66L167.276 161.556L167.881 163.029C168.335 164.134 168.518 165.15 168.614 167.097C168.845 171.802 167.91 174.691 163.19 183.859L162.324 185.543L162.001 181.349C161.824 179.042 161.577 177.073 161.453 176.973C161.213 176.778 160.989 178.472 160.716 182.544C160.625 183.904 160.481 185.015 160.396 185.014C160.119 185.008 156.664 178.031 155.777 175.686C154.626 172.644 154.14 170.259 154.145 167.683C154.149 165.694 154.726 163.057 155.33 162.265C155.638 161.861 155.898 162.721 155.941 164.291C155.983 165.8 156.575 168.624 156.963 169.165C157.188 169.479 157.242 169.368 157.248 168.567C157.261 166.887 157.788 164.383 158.498 162.616L159.179 160.924L159.368 162.818C159.472 163.86 159.942 166.629 160.414 168.973ZM105.081 170.809C105.081 171.226 108.288 174.844 111.986 178.599C117.012 183.702 121.567 188.468 124.655 191.855C128.003 195.526 134.492 203.522 137.378 207.531C140.559 211.949 147.134 222.631 149.324 226.939C153.14 234.445 161.01 263.849 154.145 268.347C147.443 269.346 144.56 284.274 144.639 284.338C144.717 284.401 210.653 259.923 210.742 259.852C210.83 259.78 162.526 254.753 163.499 251.752C167.957 237.998 172.481 227.877 178.608 217.946C186.334 205.424 194.766 195.009 208.69 180.788C214.892 174.455 217.973 171.039 217.69 170.811C217.621 170.754 216.581 171.301 215.38 172.025C211.842 174.158 207.49 176.616 203.399 178.79C193.941 183.818 188.4 187.671 183.098 192.907C174.957 200.946 169.734 209.168 167.792 216.999C167.433 218.446 166.372 223.938 165.435 229.203C163.035 242.688 162.96 242.901 163.101 235.831C163.182 231.744 163.368 229.176 163.763 226.678C164.164 224.151 164.363 221.346 164.498 216.368C164.774 206.179 164.823 192.592 164.585 192.592C164.361 192.592 162.732 194.292 162.236 195.044C162.071 195.293 161.859 196.172 161.765 196.997C161.67 197.822 161.503 198.541 161.393 198.596C161.284 198.651 161.111 197.977 161.01 197.099C160.845 195.677 160.696 195.344 159.636 194.047C158.982 193.247 158.337 192.592 158.203 192.592C157.945 192.592 158.21 222.981 158.475 223.943C158.574 224.299 158.535 224.401 158.356 224.259C158.211 224.143 157.787 222.981 157.414 221.677C155.662 215.546 151.661 207.408 147.699 201.918C145.049 198.245 140.392 193.331 136.131 189.71C131.626 185.881 128.078 183.593 118.579 178.386C113.572 175.642 108.163 172.564 106.028 171.244C105.507 170.922 105.081 170.726 105.081 170.809ZM201.206 183.905C193.576 190.825 183.091 202.755 176.748 211.734C175.728 213.178 174.774 214.456 174.628 214.575C174.482 214.693 174.957 213.606 175.684 212.16C180.548 202.475 188.938 192.279 197.039 186.207C200.18 183.854 202.772 182.08 202.912 182.19C202.967 182.233 202.199 183.005 201.206 183.905ZM124.584 185.336C132.442 191.011 139.922 199.282 144.933 207.838C146.88 211.162 149.062 215.505 148.866 215.664C148.787 215.728 148.292 215.084 147.765 214.233C145.563 210.677 138.664 201.857 134.28 196.993C130.832 193.167 126.028 188.158 122.997 185.227C119.115 181.475 119.251 181.484 124.584 185.336Z" fill="#B45309"/>
<path fill-rule="evenodd" clip-rule="evenodd" d="M168.127 23.4306L172.777 27.2276L175.985 26.9202C181.731 26.3691 178.326 35.614 180.129 41.0797C180.572 42.4235 189.425 38.2519 190.65 39.8591C192.488 42.2714 192.874 43.2643 192.862 45.5448C192.849 48.073 192.619 48.5125 190.159 50.7209C188.054 52.6107 187.022 53.1369 185.401 53.1487C184.261 53.1572 182.956 53.3772 182.499 53.6379C180.583 54.7322 189.139 58.633 193.426 58.6193C195.165 58.6138 195.243 58.5112 195.255 56.1767C195.271 53.1371 197.264 51.4514 200.854 51.44C202.723 51.434 203.639 51.8264 205.354 53.3704C206.538 54.4367 207.505 55.8246 207.501 56.4554C207.496 57.3956 207.744 57.5297 208.875 57.2002C209.634 56.9793 212.082 56.6688 214.313 56.5103C218.957 56.1802 220.98 56.9862 222.591 59.807C223.457 61.3235 223.453 61.5288 222.556 62.119C221.439 62.8546 221.848 63.4831 223.442 63.478C225.038 63.4729 228.078 65.9948 228.55 67.7161C228.887 68.9453 228.653 69.4426 227.274 70.4317L225.585 71.6431L227.983 71.974C231.443 72.4512 233.339 73.4531 233.995 75.1502C234.466 76.3685 234.98 76.2452 233.223 77.9236C231.466 79.602 238.134 82.9598 239.888 85.2716C240.72 86.3671 236.602 87.5131 239.778 89.0845C250.466 94.3744 254.908 96.9821 258.048 99.8085C262.466 103.785 263.719 106.193 264.033 111.316C264.258 115.002 264.089 115.913 262.667 118.681C261.775 120.417 261.044 121.913 261.044 122.004C261.043 122.096 262.074 122.468 263.336 122.831C270.062 124.768 268.165 133.073 271.45 139.279C282.342 140.062 274.191 150.92 274.357 158.284C274.605 169.209 279.478 158.993 269.237 184.155C266.455 190.989 266.982 193.826 270.408 190.461C271.931 188.965 272.365 188.805 273.461 189.33C277.326 191.181 276.655 198.448 272.331 201.574C271.444 202.215 270.994 202.83 271.33 202.94C273.159 203.542 277.36 206.49 278.667 208.089C280.141 209.891 280.608 212.63 279.667 213.953C279.335 214.42 278.51 214.475 276.845 214.142C274.673 213.708 272.803 213.887 272.799 214.527C272.799 214.674 273.346 215.423 274.015 216.19C274.81 217.102 275.228 218.42 275.22 219.989C275.208 222.277 275.121 222.392 273.42 222.397C270.625 222.406 269.806 222.905 269.023 225.074C268.204 227.344 266.186 229.576 264.949 229.58C264.498 229.581 263.332 228.78 262.358 227.799C260.766 226.195 260.261 226.021 257.324 226.067C249.611 226.188 241.559 232.706 238.385 241.398C237.463 243.923 237.795 244.387 239.674 243.202C240.447 242.715 242.254 242.312 243.689 242.308C249.262 242.29 252.139 247.313 249.411 252.297C247.644 255.527 244.6 257.292 240.227 257.625C238.311 257.77 236.539 258.167 236.29 258.505C236.041 258.844 235.825 260.36 235.811 261.873C235.794 263.65 235.343 265.273 234.539 266.452C231.926 270.282 225.084 270.928 221.375 267.693C220.341 266.791 215.113 272.397 214.551 272.399C212.708 272.405 213.922 277.271 206.938 285.674C203.154 290.227 197.624 287.475 195.787 289.021C191.556 292.582 185.735 295.109 179.86 295.933C177.351 296.286 174.257 296.925 172.985 297.354C171.713 297.783 170.027 298.136 169.237 298.139C168.449 298.141 166.759 298.89 165.483 299.802C162.594 301.867 161.366 301.871 157.521 299.827C155.842 298.935 153.834 298.202 153.059 298.2C152.285 298.197 150.909 297.859 150.001 297.448C149.094 297.038 146.149 296.425 143.456 296.087C133.544 294.843 131.143 295.724 121.862 283.979C115.664 276.135 106.697 266.412 104.779 266.418C104.01 266.42 102.637 267.137 101.727 268.011C99.6678 269.989 96.1406 270.633 92.755 269.648C90.7201 269.056 90.043 268.447 88.6173 265.919C87.4197 263.797 86.9764 262.282 87.1293 260.834C87.3376 258.851 87.2622 258.759 85.1883 258.478C78.715 257.601 75.9089 256.113 74.764 252.954C72.2992 246.151 78.2007 240.659 84.7281 243.68L85.8596 243.558L86.1876 242.712C85.0421 237.489 79.0353 238.379 73.7613 235.962C71.8901 235.104 70.4082 227.257 67.7695 227.23C64.2717 227.194 63.816 227.332 61.8706 229.023L59.7621 230.856L58.1675 229.586C57.2906 228.887 56.2284 227.328 55.8074 226.121C55.0968 224.087 54.829 223.893 52.1355 223.459C48.7421 222.912 48.5952 222.429 50.4804 218.02C51.1625 216.425 51.7209 215.066 51.7212 215C51.7222 214.934 50.2751 214.939 48.5067 215.01L45.2909 215.14L45.1087 213.026C44.8797 210.367 46.7373 207.792 50.3835 205.715C52.8627 204.303 53.7212 203.279 52.4223 203.283C51.0799 203.288 48.7475 198.52 48.762 195.801C48.7864 191.202 51.8615 188.986 54.044 191.994C54.5917 192.749 55.5591 193.365 56.1942 193.363C58.2267 193.357 57.5694 190.526 52.8846 179.118C47.5554 166.141 46.1719 161.79 45.2153 155.001C43.1546 140.376 49.9465 127.746 61.4921 124.732L64.9698 123.823L63.5437 121.842C60.489 117.597 60.1167 111.029 62.6648 106.328C65.6346 100.847 67.9306 98.9961 79.3809 92.8454C85.386 89.6194 91.0087 86.2246 91.8753 85.301C93.6903 83.3675 93.9548 80.7235 92.5182 78.8714C90.2659 75.9695 92.9248 72.7701 97.7392 72.5897L100.437 72.4886L98.8176 71.3279C95.5434 68.9835 97.251 65.3501 102.319 63.877C104.433 63.2626 104.552 63.1307 103.575 62.4898C102.668 61.8938 102.611 61.5565 103.217 60.3711C104.83 57.2158 110.853 55.5156 115.075 57.0231C116.421 57.5038 117.58 57.8045 117.651 57.6903C117.722 57.5767 118.284 56.5973 118.9 55.5149C122.139 49.8152 130.417 50.619 130.561 56.647L130.615 58.9339L133.787 58.6871C135.978 58.5172 138.019 57.8618 140.39 56.5662C142.278 55.5347 143.822 54.5242 143.824 54.3194C143.825 54.1152 142.575 53.7834 141.046 53.5818C135.972 52.9137 132.205 48.5023 133.107 44.2853C133.318 43.2982 134.262 41.3918 135.205 40.049C136.148 38.7057 144.075 40.4873 144.522 39.1235C146.337 33.594 144.164 26.5408 150.047 26.9723L153.46 27.2229L157.922 23.43C160.376 21.3437 162.63 19.6357 162.931 19.6347C163.232 19.6338 165.57 21.3415 168.127 23.4306ZM149.54 65.1119C144.171 65.9987 138.208 67.708 130.663 70.5227C125.937 72.2865 125.544 72.59 109.642 86.8017C91.7984 102.747 91.0687 103.603 84.696 116.052C70.6672 143.458 68.3132 177.293 78.4131 206.369C80.2039 211.523 81.1486 213.183 85.3837 218.619C88.0789 222.076 91.1203 226.513 92.143 228.478C99.8411 243.267 99.6595 242.997 105.572 248.389C113.221 255.365 119.334 259.592 126.55 262.898C139.366 268.77 148.426 270.683 163.19 270.636C171.025 270.611 173.455 270.391 178.326 269.266C193.043 265.868 203.611 260.464 216.789 249.598C223.831 243.791 233.611 232.095 236.29 226.067C238.616 220.835 234.681 227.301 239.674 220.761C245.318 213.368 247.118 204.888 249.926 192.559C254.307 173.321 253.838 155.609 248.437 136.412C245.519 126.036 242.558 118.958 236.564 108.022C231.407 98.6161 231.201 98.3404 227.11 95.4009C224.809 93.7475 218.401 88.3322 212.87 83.3666C202.005 73.6126 199.145 71.7425 190.641 68.834C175.852 63.7756 164.084 62.7098 149.54 65.1119Z" fill="#B45309"/>
<path fill-rule="evenodd" clip-rule="evenodd" d="M168.127 23.4306L172.777 27.2276L175.985 26.9202C181.731 26.3691 178.326 35.614 180.129 41.0797C180.572 42.4235 189.425 38.2519 190.65 39.8591C192.488 42.2714 192.874 43.2643 192.862 45.5448C192.849 48.073 192.619 48.5125 190.159 50.7209C188.054 52.6107 187.022 53.1369 185.401 53.1487C184.261 53.1572 182.956 53.3772 182.499 53.6379C180.583 54.7322 189.139 58.633 193.426 58.6193C195.165 58.6138 195.243 58.5112 195.255 56.1767C195.271 53.1371 197.264 51.4514 200.854 51.44C202.723 51.434 203.639 51.8264 205.354 53.3704C206.538 54.4367 207.505 55.8246 207.501 56.4554C207.496 57.3956 207.744 57.5297 208.875 57.2002C209.634 56.9793 212.082 56.6688 214.313 56.5103C218.957 56.1802 220.98 56.9862 222.591 59.807C223.457 61.3235 223.453 61.5288 222.556 62.119C221.439 62.8546 221.848 63.4831 223.442 63.478C225.038 63.4729 228.078 65.9948 228.55 67.7161C228.887 68.9453 228.653 69.4426 227.274 70.4317L225.585 71.6431L227.983 71.974C231.443 72.4512 233.339 73.4531 233.995 75.1502C234.466 76.3685 234.98 76.2452 233.223 77.9236C231.466 79.602 238.134 82.9598 239.888 85.2716C240.72 86.3671 236.602 87.5131 239.778 89.0845C250.466 94.3744 254.908 96.9821 258.048 99.8085C262.466 103.785 263.719 106.193 264.033 111.316C264.258 115.002 264.089 115.913 262.667 118.681C261.775 120.417 261.044 121.913 261.044 122.004C261.043 122.096 262.074 122.468 263.336 122.831C270.062 124.768 268.165 133.073 271.45 139.279C282.342 140.062 274.191 150.92 274.357 158.284C274.605 169.209 279.478 158.993 269.237 184.155C266.455 190.989 266.982 193.826 270.408 190.461C271.931 188.965 272.365 188.805 273.461 189.33C277.326 191.181 276.655 198.448 272.331 201.574C271.444 202.215 270.994 202.83 271.33 202.94C273.159 203.542 277.36 206.49 278.667 208.089C280.141 209.891 280.608 212.63 279.667 213.953C279.335 214.42 278.51 214.475 276.845 214.142C274.673 213.708 272.803 213.887 272.799 214.527C272.799 214.674 273.346 215.423 274.015 216.19C274.81 217.102 275.228 218.42 275.22 219.989C275.208 222.277 275.121 222.392 273.42 222.397C270.625 222.406 269.806 222.905 269.023 225.074C268.204 227.344 266.186 229.576 264.949 229.58C264.498 229.581 263.332 228.78 262.358 227.799C260.766 226.195 260.261 226.021 257.324 226.067C249.611 226.188 241.559 232.706 238.385 241.398C237.463 243.923 237.795 244.387 239.674 243.202C240.447 242.715 242.254 242.312 243.689 242.308C249.262 242.29 252.139 247.313 249.411 252.297C247.644 255.527 244.6 257.292 240.227 257.625C238.311 257.77 236.539 258.167 236.29 258.505C236.041 258.844 235.825 260.36 235.811 261.873C235.794 263.65 235.343 265.273 234.539 266.452C231.926 270.282 225.084 270.928 221.375 267.693C220.341 266.791 215.113 272.397 214.551 272.399C212.708 272.405 213.922 277.271 206.938 285.674C203.154 290.227 197.624 287.475 195.787 289.021C191.556 292.582 185.735 295.109 179.86 295.933C177.351 296.286 174.257 296.925 172.985 297.354C171.713 297.783 170.027 298.136 169.237 298.139C168.449 298.141 166.759 298.89 165.483 299.802C162.594 301.867 161.366 301.871 157.521 299.827C155.842 298.935 153.834 298.202 153.059 298.2C152.285 298.197 150.909 297.859 150.001 297.448C149.094 297.038 146.149 296.425 143.456 296.087C133.544 294.843 131.143 295.724 121.862 283.979C115.664 276.135 106.697 266.412 104.779 266.418C104.01 266.42 102.637 267.137 101.727 268.011C99.6678 269.989 96.1406 270.633 92.755 269.648C90.7201 269.056 90.043 268.447 88.6173 265.919C87.4197 263.797 86.9764 262.282 87.1293 260.834C87.3376 258.851 87.2622 258.759 85.1883 258.478C78.715 257.601 75.9089 256.113 74.764 252.954C72.2992 246.151 78.2007 240.659 84.7281 243.68L85.8596 243.558L86.1876 242.712C85.0421 237.489 79.0353 238.379 73.7613 235.962C71.8901 235.104 70.4082 227.257 67.7695 227.23C64.2717 227.194 63.816 227.332 61.8706 229.023L59.7621 230.856L58.1675 229.586C57.2906 228.887 56.2284 227.328 55.8074 226.121C55.0968 224.087 54.829 223.893 52.1355 223.459C48.7421 222.912 48.5952 222.429 50.4804 218.02C51.1625 216.425 51.7209 215.066 51.7212 215C51.7222 214.934 50.2751 214.939 48.5067 215.01L45.2909 215.14L45.1087 213.026C44.8797 210.367 46.7373 207.792 50.3835 205.715C52.8627 204.303 53.7212 203.279 52.4223 203.283C51.0799 203.288 48.7475 198.52 48.762 195.801C48.7864 191.202 51.8615 188.986 54.044 191.994C54.5917 192.749 55.5591 193.365 56.1942 193.363C58.2267 193.357 57.5694 190.526 52.8846 179.118C47.5554 166.141 46.1719 161.79 45.2153 155.001C43.1546 140.376 49.9465 127.746 61.4921 124.732L64.9698 123.823L63.5437 121.842C60.489 117.597 60.1167 111.029 62.6648 106.328C65.6346 100.847 67.9306 98.9961 79.3809 92.8454C85.386 89.6194 91.0087 86.2246 91.8753 85.301C93.6903 83.3675 93.9548 80.7235 92.5182 78.8714C90.2659 75.9695 92.9248 72.7701 97.7392 72.5897L100.437 72.4886L98.8176 71.3279C95.5434 68.9835 97.251 65.3501 102.319 63.877C104.433 63.2626 104.552 63.1307 103.575 62.4898C102.668 61.8938 102.611 61.5565 103.217 60.3711C104.83 57.2158 110.853 55.5156 115.075 57.0231C116.421 57.5038 117.58 57.8045 117.651 57.6903C117.722 57.5767 118.284 56.5973 118.9 55.5149C122.139 49.8152 130.417 50.619 130.561 56.647L130.615 58.9339L133.787 58.6871C135.978 58.5172 138.019 57.8618 140.39 56.5662C142.278 55.5347 143.822 54.5242 143.824 54.3194C143.825 54.1152 142.575 53.7834 141.046 53.5818C135.972 52.9137 132.205 48.5023 133.107 44.2853C133.318 43.2982 134.262 41.3918 135.205 40.049C136.148 38.7057 144.075 40.4873 144.522 39.1235C146.337 33.594 144.164 26.5408 150.047 26.9723L153.46 27.2229L157.922 23.43C160.376 21.3437 162.63 19.6357 162.931 19.6347C163.232 19.6338 165.57 21.3415 168.127 23.4306ZM149.54 65.1119C144.171 65.9987 138.208 67.708 130.663 70.5227C125.937 72.2865 125.544 72.59 109.642 86.8017C91.7984 102.747 91.0687 103.603 84.696 116.052C70.6672 143.458 68.3132 177.293 78.4131 206.369C80.2039 211.523 81.1486 213.183 85.3837 218.619C88.0789 222.076 91.1203 226.513 92.143 228.478C99.8411 243.267 99.6595 242.997 105.572 248.389C113.221 255.365 119.334 259.592 126.55 262.898C139.366 268.77 148.426 270.683 163.19 270.636C171.025 270.611 173.455 270.391 178.326 269.266C193.043 265.868 203.611 260.464 216.789 249.598C223.831 243.791 233.611 232.095 236.29 226.067C238.616 220.835 234.681 227.301 239.674 220.761C245.318 213.368 247.118 204.888 249.926 192.559C254.307 173.321 253.838 155.609 248.437 136.412C245.519 126.036 242.558 118.958 236.564 108.022C231.407 98.6161 231.201 98.3404 227.11 95.4009C224.809 93.7475 218.401 88.3322 212.87 83.3666C202.005 73.6126 199.145 71.7425 190.641 68.834C175.852 63.7756 164.084 62.7098 149.54 65.1119Z" fill="#B45309"/>
</svg>
