<svg width="355" height="82" viewBox="0 0 355 82" fill="none" xmlns="http://www.w3.org/2000/svg">
<g filter="url(#filter0_d_135_20)">
<path d="M22.634 57.596C19.4513 57.596 16.4483 57.134 13.625 56.21C10.853 55.2347 8.543 53.7717 6.695 51.821L10.93 44.66L11.238 44.044L11.931 44.429C12.0337 44.8397 12.162 45.2504 12.316 45.661C12.5213 46.0204 12.932 46.4824 13.548 47.047C14.8313 48.0224 16.243 48.818 17.783 49.434C19.3743 50.05 21.094 50.358 22.942 50.358C25.3547 50.358 27.3053 49.8447 28.794 48.818C30.334 47.74 31.104 46.1744 31.104 44.121C31.104 43.0944 30.873 42.1447 30.411 41.272C29.949 40.348 29.025 39.424 27.639 38.5C26.3043 37.576 24.3023 36.498 21.633 35.266C18.3477 33.8287 15.7297 32.3914 13.779 30.954C11.8797 29.4654 10.5193 27.874 9.698 26.18C8.87667 24.4347 8.466 22.484 8.466 20.328C8.466 17.9667 9.10767 15.862 10.391 14.014C11.7257 12.166 13.548 10.703 15.858 9.62502C18.168 8.54702 20.8117 8.00802 23.789 8.00802C29.6923 8.00802 34.5433 10.0614 38.342 14.168L33.26 20.02L32.798 20.559L32.182 20.097C32.1307 19.6864 32.028 19.3014 31.874 18.942C31.7713 18.5314 31.4377 18.018 30.873 17.402C29.8977 16.478 28.8453 15.862 27.716 15.554C26.638 15.246 25.3547 15.092 23.866 15.092C21.7613 15.092 20.093 15.5797 18.861 16.555C17.629 17.5304 17.013 18.6597 17.013 19.943C17.013 20.9697 17.244 21.8937 17.706 22.715C18.168 23.5364 19.092 24.409 20.478 25.333C21.9153 26.257 24.097 27.3607 27.023 28.644C30.257 30.1327 32.798 31.5957 34.646 33.033C36.494 34.419 37.7773 35.959 38.496 37.653C39.266 39.347 39.651 41.3234 39.651 43.582C39.651 45.892 39.0607 48.125 37.88 50.281C36.6993 52.437 34.8513 54.208 32.336 55.594C29.8207 56.9287 26.5867 57.596 22.634 57.596ZM61.134 57.596C57.9513 57.596 54.9483 57.134 52.125 56.21C49.353 55.2347 47.043 53.7717 45.195 51.821L49.43 44.66L49.738 44.044L50.431 44.429C50.5337 44.8397 50.662 45.2504 50.816 45.661C51.0213 46.0204 51.432 46.4824 52.048 47.047C53.3313 48.0224 54.743 48.818 56.283 49.434C57.8743 50.05 59.594 50.358 61.442 50.358C63.8547 50.358 65.8053 49.8447 67.294 48.818C68.834 47.74 69.604 46.1744 69.604 44.121C69.604 43.0944 69.373 42.1447 68.911 41.272C68.449 40.348 67.525 39.424 66.139 38.5C64.8043 37.576 62.8023 36.498 60.133 35.266C56.8477 33.8287 54.2297 32.3914 52.279 30.954C50.3797 29.4654 49.0193 27.874 48.198 26.18C47.3767 24.4347 46.966 22.484 46.966 20.328C46.966 17.9667 47.6077 15.862 48.891 14.014C50.2257 12.166 52.048 10.703 54.358 9.62502C56.668 8.54702 59.3117 8.00802 62.289 8.00802C68.1923 8.00802 73.0433 10.0614 76.842 14.168L71.76 20.02L71.298 20.559L70.682 20.097C70.6307 19.6864 70.528 19.3014 70.374 18.942C70.2713 18.5314 69.9377 18.018 69.373 17.402C68.3977 16.478 67.3453 15.862 66.216 15.554C65.138 15.246 63.8547 15.092 62.366 15.092C60.2613 15.092 58.593 15.5797 57.361 16.555C56.129 17.5304 55.513 18.6597 55.513 19.943C55.513 20.9697 55.744 21.8937 56.206 22.715C56.668 23.5364 57.592 24.409 58.978 25.333C60.4153 26.257 62.597 27.3607 65.523 28.644C68.757 30.1327 71.298 31.5957 73.146 33.033C74.994 34.419 76.2773 35.959 76.996 37.653C77.766 39.347 78.151 41.3234 78.151 43.582C78.151 45.892 77.5607 48.125 76.38 50.281C75.1993 52.437 73.3513 54.208 70.836 55.594C68.3207 56.9287 65.0867 57.596 61.134 57.596ZM83.926 8.77802H93.397V9.47102C93.089 9.77902 92.8837 10.1384 92.781 10.549C92.7297 10.9084 92.704 11.4987 92.704 12.32V28.259H107.488V8.77802H116.959V9.47102C116.651 9.77902 116.471 10.1384 116.42 10.549C116.369 10.9084 116.343 11.4987 116.343 12.32V56.749H107.488V35.189H92.704V56.749H83.926V8.77802Z" fill="#28DA9F"/>
<path d="M130.126 56.749L129.356 50.589L138.211 48.895V11.627H129.51L126.199 19.327H120.27L121.733 3.54202H164.468L166.162 19.25H160.31L156.922 11.627H148.144V48.895L157.076 50.589L156.306 56.749H130.126ZM184.583 57.057C182.17 57.057 180.066 56.6464 178.269 55.825C176.472 55.0037 175.086 53.746 174.111 52.052C173.136 50.3067 172.648 48.125 172.648 45.507V26.103H168.721L167.874 20.944L179.27 18.865L181.965 21.791V43.736C181.965 44.7114 182.093 45.584 182.35 46.354C182.607 47.0727 182.966 47.6887 183.428 48.202C183.89 48.7154 184.429 49.1004 185.045 49.357C185.712 49.5624 186.431 49.665 187.201 49.665C188.587 49.665 189.87 49.2544 191.051 48.433C192.232 47.6117 193.027 46.6877 193.438 45.661V25.872L189.973 26.103L189.049 20.944L200.06 18.865L202.755 21.791V48.664C202.755 49.3314 202.883 49.7934 203.14 50.05C203.397 50.2554 203.679 50.358 203.987 50.358C204.244 50.358 204.475 50.3324 204.68 50.281C204.885 50.2297 205.014 50.204 205.065 50.204L206.528 54.516C206.22 54.8754 205.527 55.3887 204.449 56.056C203.422 56.7234 202.113 57.057 200.522 57.057C199.187 57.057 197.955 56.7747 196.826 56.21C195.748 55.6454 194.901 54.6957 194.285 53.361C193.104 54.6444 191.616 55.594 189.819 56.21C188.022 56.7747 186.277 57.057 184.583 57.057ZM211.692 56.749L210.845 51.821L215.157 50.82V26.103H211.23L210.383 20.867L221.779 18.865L224.474 21.714C225.449 20.9954 226.758 20.3537 228.401 19.789C230.044 19.2244 231.712 18.942 233.406 18.942C235.562 18.942 237.538 19.3014 239.335 20.02C241.132 20.7387 242.569 21.8424 243.647 23.331C244.725 24.8197 245.264 26.7447 245.264 29.106V51.128L249.499 51.821L249.422 56.749H232.097V51.821L235.947 50.974V31.262C235.947 29.6194 235.511 28.413 234.638 27.643C233.817 26.873 232.662 26.488 231.173 26.488C229.684 26.488 228.273 26.873 226.938 27.643C225.655 28.3617 224.833 28.9264 224.474 29.337V50.974L228.863 51.898L228.786 56.749H211.692ZM254.403 56.749L253.556 51.821L257.868 50.82V26.103H253.941L253.094 20.867L264.49 18.865L267.185 21.714C268.16 20.9954 269.469 20.3537 271.112 19.789C272.754 19.2244 274.423 18.942 276.117 18.942C278.273 18.942 280.249 19.3014 282.046 20.02C283.842 20.7387 285.28 21.8424 286.358 23.331C287.436 24.8197 287.975 26.7447 287.975 29.106V51.128L292.21 51.821L292.133 56.749H274.808V51.821L278.658 50.974V31.262C278.658 29.6194 278.221 28.413 277.349 27.643C276.527 26.873 275.372 26.488 273.884 26.488C272.395 26.488 270.983 26.873 269.649 27.643C268.365 28.3617 267.544 28.9264 267.185 29.337V50.974L271.574 51.898L271.497 56.749H254.403ZM313.216 57.057C310.29 57.057 307.492 56.3897 304.823 55.055C302.153 53.669 299.972 51.59 298.278 48.818C296.584 46.046 295.737 42.5554 295.737 38.346C295.737 33.8287 296.584 30.1584 298.278 27.335C300.023 24.4604 302.205 22.3557 304.823 21.021C307.492 19.635 310.187 18.942 312.908 18.942C315.064 18.942 317.143 19.327 319.145 20.097C321.147 20.8157 322.789 21.9707 324.073 23.562C325.407 25.102 326.075 27.0784 326.075 29.491C326.075 31.647 325.613 33.495 324.689 35.035C323.816 36.575 322.584 37.8327 320.993 38.808C319.453 39.7834 317.682 40.502 315.68 40.964C313.678 41.426 311.573 41.6314 309.366 41.58L305.439 41.503C305.747 43.813 306.594 45.7637 307.98 47.355C309.366 48.9464 311.624 49.742 314.756 49.742C317.117 49.742 319.016 49.3057 320.454 48.433C321.891 47.509 323.072 46.6107 323.996 45.738L325.767 52.437C325.305 53.053 324.483 53.7204 323.303 54.439C322.122 55.1577 320.659 55.7737 318.914 56.287C317.22 56.8004 315.32 57.057 313.216 57.057ZM305.516 35.035L308.057 35.112C309.032 35.1634 310.007 35.112 310.983 34.958C312.009 34.7527 312.933 34.4447 313.755 34.034C314.627 33.6234 315.32 33.0844 315.834 32.417C316.347 31.6984 316.604 30.8257 316.604 29.799C316.604 28.6184 316.27 27.7457 315.603 27.181C314.935 26.565 314.088 26.257 313.062 26.257C311.83 26.257 310.649 26.6677 309.52 27.489C308.442 28.259 307.543 29.3114 306.825 30.646C306.106 31.9807 305.67 33.4437 305.516 35.035ZM331.011 56.749L330.164 51.898L334.476 50.82V6.85302H330.472L329.625 1.61702L341.098 1.97291e-05L343.793 2.84902V50.666L348.798 51.898V56.749H331.011Z" fill="#4A4A4A"/>
<path d="M4 65.604H119.5V73.304H4V65.604Z" fill="#28DA9F"/>
<path d="M119.5 65.219H350.261V72.534H119.5V65.219Z" fill="#4A4A4A"/>
</g>
<defs>
<filter id="filter0_d_135_20" x="0" y="0" width="354.261" height="81.3037" filterUnits="userSpaceOnUse" color-interpolation-filters="sRGB">
<feFlood flood-opacity="0" result="BackgroundImageFix"/>
<feColorMatrix in="SourceAlpha" type="matrix" values="0 0 0 0 0 0 0 0 0 0 0 0 0 0 0 0 0 0 127 0" result="hardAlpha"/>
<feOffset dy="4"/>
<feGaussianBlur stdDeviation="2"/>
<feComposite in2="hardAlpha" operator="out"/>
<feColorMatrix type="matrix" values="0 0 0 0 0.499294 0 0 0 0 0.499294 0 0 0 0 0.499294 0 0 0 0.25 0"/>
<feBlend mode="normal" in2="BackgroundImageFix" result="effect1_dropShadow_135_20"/>
<feBlend mode="normal" in="SourceGraphic" in2="effect1_dropShadow_135_20" result="shape"/>
</filter>
</defs>
</svg>
